<svg xmlns="http://www.w3.org/2000/svg" viewBox="80 50 350 300">
  <g style="clip-path:url(#clippath)">
    <path d="M283.5 240.7h7.6l-19.2 44.7c-1.5-1.7-3.6-2.8-6.1-2.8h-.4l18-41.9Zm38.6-72.3-9.6 22.3h-7.6l10.8-25c1.5 1.7 3.6 2.8 6.1 2.8h.4Z" style="fill:#ffd485"/>
    <path d="m196.9 79.4-95.7 83.9c-.7-2.4-2.4-4.3-4.6-5.3l95.7-83.9c.6 2.4 2.4 4.3 4.6 5.3" style="fill:#a8bdf0"/>
    <path d="M124.8 295.5c-1.9 0-3.6.7-5 1.8L91.7 173.2c.6.1 1.2.2 1.8.2 1.9 0 3.6-.7 5-1.8l28.1 124.1c-.6-.1-1.2-.2-1.8-.2" style="fill:#ee88b3"/>
    <path d="M257.8 290.6c0 1.5.4 2.9 1.1 4.2l-126.7 11.6c.3-.9.5-1.8.5-2.8 0-1.5-.4-2.9-1.2-4.1l126.7-11.6c-.3.9-.5 1.8-.5 2.8Z" style="fill:#f89f72"/>
    <path d="M318 153.4c-2.1 1.1-3.7 3.2-4.1 5.7l-110.1-80c2.1-1.1 3.7-3.2 4.1-5.7z" style="fill:#88e0d8"/>
    <path d="M204.5 72c0 2.4-1.9 4.4-4.3 4.5h-.2c-2.5 0-4.5-2-4.5-4.5v-.8c.4-2.1 2.2-3.7 4.4-3.7s3.8 1.4 4.3 3.3c.1.4.2.8.2 1.2ZM98 165.4v.8c0 .4-.2.8-.4 1.2-.7 1.5-2.3 2.5-4 2.5s-2-.4-2.8-1c-1-.8-1.7-2.1-1.7-3.5 0-2.4 1.9-4.4 4.3-4.5h.2c2.5 0 4.5 2 4.5 4.5Zm31.3 138.1c0 1.3-.5 2.4-1.4 3.2-.8.8-1.9 1.3-3.1 1.3-2.5 0-4.5-2-4.5-4.5s.2-1.4.5-2c.7-1.5 2.3-2.5 4-2.5s1.8.3 2.5.8c0 0 .2.1.3.2 1 .8 1.7 2.1 1.7 3.5m141-12.9c0 2.5-2 4.5-4.5 4.5s-1.8-.3-2.5-.8c-1.2-.8-2-2.2-2-3.8s.5-2.4 1.4-3.2c.3-.3.6-.6 1-.8.6-.3 1.3-.5 2.1-.5 2.1 0 3.8 1.4 4.3 3.3.1.4.2.8.2 1.2Zm55.9-130.1c0 1.7-1 3.2-2.4 4-.6.3-1.3.5-2.1.5-2.1 0-3.8-1.4-4.3-3.3-.1-.4-.2-.8-.2-1.2 0-2.4 1.9-4.4 4.3-4.5h.2c2.5 0 4.5 2 4.5 4.5m-113.9 63.1h-1.5l-2.8-22.2h-7l4.7 28.7h11l8.5-28.7h-7.1zm15-22.2 4.1 28.7h6.6l-4-28.7zm12.5 5.6h12.1v.8l-12.1 16.6v5.7h20.7v-5.5h-12v-.8l12-16.4v-6h-20.7zm39.2 20c-1.4.2-2.7.2-3.9.2s-2.9-.2-3.9-.7-1.8-1.2-2.3-2.1c-.5-1-.9-2.2-1.2-3.7-.2-1.5-.4-3.2-.5-5.2 0-2 0-3.8.1-5.2.1-1.5.4-2.7.9-3.7q.75-1.5 2.1-2.1c1-.5 2.2-.7 3.8-.7s1.6 0 2.5.1l2.7.3c.9.1 1.7.2 2.3.3v-3.1c-.6-.1-1.3-.3-2.2-.4-.9-.2-1.8-.3-2.8-.4s-2-.2-3-.2c-2.2 0-4 .3-5.4 1-1.4.6-2.5 1.6-3.2 2.9-.8 1.3-1.2 2.9-1.5 4.7-.2 1.9-.3 4.1-.2 6.5 0 2.5.3 4.6.7 6.5s1 3.4 1.8 4.7c.9 1.2 2 2.2 3.4 2.8s3.2 1 5.4 1 1.9 0 2.9-.1c1 0 1.9-.2 2.8-.3s1.7-.3 2.4-.4l-.2-3.1c-1 .2-2.1.3-3.5.5Zm26.4-26h-3.7l1.5 11.6.1 1.3h-14.1l-1.7-12.9h-3.7l3.6 29.1h3.7l-.6-5.7-.9-7.3h14.2l1.5 13h3.7l-3-24.2zm5.7 0 4.1 29.1h3.8l-4.2-29.1zm29.6 0h-21.1l-.4 3.3h8.7l-2.7 25.8h3.8l2.7-25.8h8.6zm19.6 14.4c1-1.4 1.7-3.2 2-5.3s.2-3.8-.4-5.2c-.5-1.4-1.5-2.4-2.8-3s-3-.9-5.2-.9h-10.8l-4.1 29.1h3.7l1.5-10.9h7.9l3.5 10.9h4l-3.6-11.7c1.8-.6 3.3-1.6 4.3-3.1Zm-1.8-5.6c-.1 1.2-.5 2.2-1 3.2-.5.9-1.2 1.7-2.1 2.2s-2.1.8-3.4.8h-7.2l1.7-11.8h7.3c1.9 0 3.3.5 4.1 1.4s1 2.3.7 4.2Zm19.2-8.8H370l-7.8 29.1h3.7l2-7.2h12l1.6 7.2h3.7l-7.4-29.1Zm-9.1 18.8 4.2-15.6h2.1l4.2 15.6z" style="fill:#4c4c4c"/>
  </g>
</svg>