<svg xmlns="http://www.w3.org/2000/svg" fill="none" viewBox="0 0 2048 530">
  <path fill="#111" stroke="#fff" stroke-width="20" d="m113.428 416.796 1.359 8.404h129.475l2.124-7.153 87.8-295.6 3.816-12.847h-93.726l-1.951 7.473-57.011 218.285-27.292-217.006-1.101-8.752H63.753l1.875 11.596z"/>
  <path fill="#111" stroke="#fff" stroke-width="20" d="m378.6 416.613 1.226 8.587h88.903l-1.63-11.414-42.2-295.6-1.225-8.586h-88.903l1.629 11.413z"/>
  <path fill="#111" stroke="#fff" stroke-width="20" d="M465.4 415.2v10h233.4v-77.4H578.529l118.329-160.978 1.942-2.642V109.6H465.4v76.9h121.189L467.318 350.211l-1.918 2.632z"/>
  <path fill="#111" stroke="#fff" stroke-width="15" d="m765.297 113.373-.011.005-.011.004c-15.717 7.204-28.013 18.018-36.632 32.603-8.448 14.297-13.799 31.654-16.191 51.832-2.354 19.853-3.158 42.741-2.248 68.535.81 25.497 3.141 48.087 6.826 67.638 3.746 19.876 10.265 36.885 19.652 50.804 9.5 14.086 22.202 24.691 37.95 31.75C790.415 423.619 810.258 427 833.8 427c10.102 0 20.325-.408 30.666-1.329a492 492 0 0 0 29.55-3.554l.012-.002c9.273-1.411 17.537-2.837 24.743-4.381l6.355-1.362-.443-6.483-2.2-32.2-.568-8.3-8.197 1.422c-9.61 1.667-21.651 3.347-36.041 4.935-14.338 1.582-23.045 2.354-39.177 2.354-15.862 0-28.068-2.32-37.032-6.498-8.88-4.138-15.626-10.36-20.568-18.944l-.009-.014-.008-.014c-5.107-8.78-8.985-20.445-11.49-35.094-2.529-14.782-4.206-32.332-5.098-52.707-.592-20.581-.189-38.324 1.269-53.092 1.44-14.591 4.47-26.128 8.837-34.969 4.286-8.38 10.385-14.422 18.659-18.266l.042-.019.041-.02c8.396-4.027 20.245-6.263 35.857-6.263 7.557 0 16.063.388 25.555 1.081 9.49.692 18.749 1.579 27.885 2.758 9.288 1.198 16.905 2.275 23.078 3.433l8.769 1.644.112-8.921.4-31.7.076-6.022-5.864-1.375c-6.606-1.548-14.57-3.077-23.712-4.684q-13.968-2.454-29.674-3.979a267 267 0 0 1-5.27-.568c-5.493-.633-8.387-.967-26.555-.967-23.249 0-42.907 3.383-58.503 10.473Zm192.959 302.743.81 6.584h53.394l-1.01-8.396L996.356 288.8h130.994l15.3 127.295.8 6.605h53.43l-1.04-8.416-36.9-299.9-.81-6.584h-53.42l1.05 8.426 15.45 124.174H990.224l-15.682-126.026-.818-6.574H920.32l1.036 8.416zm286.614.139.92 6.445h53.45l-1.21-8.555-42.6-299.9-.92-6.445h-53.45l1.21 8.555zm110.53 6.445h44.96l.7-6.721 27.1-259.279h89.03l.76-6.643 3.9-33.9.96-8.357h-232.4l-.76 6.643-3.9 33.9-.96 8.357h90.09l-26.94 257.72 7.36.769v7.511zm134.67-8.555-.07.525v8.13h52.33l.9-6.466 14.7-105.634h69.68l33.94 106.87 1.66 5.23h56.58l-3.03-9.732-35.28-113.194c17.27-6.974 31.11-17.504 41.39-31.668l.01-.01v-.01c11.46-15.888 18.52-35.307 21.55-57.945 3.3-22.502 2.2-41.775-4.18-57.365-6.32-15.667-17.37-27.254-32.62-34.543-14.94-7.143-33.85-10.533-56.23-10.533h-117.81l-.92 6.445zm200.41-209.154-.02.127-.01.127c-1.3 11.316-4.43 21.251-9.3 30.007-4.76 8.551-11.22 15.166-19.44 19.974-7.97 4.663-18.37 7.274-31.61 7.274h-65.25l15.25-106.7h68.3c19.03 0 30.25 4.535 36.14 11.601 6 7.205 8.71 19.093 5.94 37.59ZM1735.6 422.7h43.37l1.55-5.459 19.35-68.441h111.82l15.19 68.034 1.31 5.866h53.96l-2.38-9.354-76.5-299.9-1.44-5.646h-91.07l-1.5 5.546-80.9 299.9 7.14 1.927v7.527zm165-121.9h-89.1l39.44-145.8h10.22z"/>
</svg>