<svg width="100%" viewBox="0 0 485 79" fill="none" xmlns="http://www.w3.org/2000/svg">
<g clip-path="url(#clip0_183_372)">
<mask id="mask0_183_372" style="mask-type:alpha" maskUnits="userSpaceOnUse" x="11" y="-3" width="471" height="85">
<path d="M383.5 81.5L11.5 79L46 45.5L90.5 27L94.5 -0.499966L482 -2.5L383.5 81.5Z" fill="#D9D9D9"/>
</mask>
<g mask="url(#mask0_183_372)">
<rect x="-83.5583" y="-35.6563" width="571" height="146.339" transform="rotate(1.80072 -83.5583 -35.6563)" fill="url(#paint0_linear_183_372)"/>
</g>
<path d="M325.643 51.3534L291.433 110.849L217.807 94.4876L217.807 26.848L283.252 -2.19274L325.643 51.3534Z" stroke="white" stroke-width="2"/>
<path d="M217.5 26L160.5 13.5L126 66.5L181 107.5" stroke="white" stroke-width="2"/>
<line x1="325.13" y1="52.5074" x2="355.13" y2="-0.492599" stroke="white" stroke-width="2"/>
<line x1="325.512" y1="51.1412" x2="382.512" y2="85.1412" stroke="white" stroke-width="2"/>
<line x1="160.016" y1="13.8211" x2="164.016" y2="-8.17885" stroke="white" stroke-width="2"/>
<path d="M377.651 84.6425L427 42.6425L387 -0.499988" stroke="white" stroke-width="2"/>
<path d="M427.165 42.4497L487 -6.5" stroke="white" stroke-width="2"/>
<line x1="126.249" y1="67.6598" x2="90.2486" y2="26.6598" stroke="white" stroke-width="2"/>
<line x1="91.3818" y1="26.9243" x2="45.3818" y2="45.9243" stroke="white" stroke-width="2"/>
<line x1="45.9806" y1="44.8039" x2="52.9806" y2="79.8039" stroke="white" stroke-width="2"/>
<line x1="45.6968" y1="45.7173" x2="10.6968" y2="79.7173" stroke="white" stroke-width="2"/>
<line x1="91.0088" y1="27.8679" x2="95.0088" y2="-2.13213" stroke="white" stroke-width="2"/>
<line x1="125.789" y1="66.614" x2="111.789" y2="84.614" stroke="white" stroke-width="2"/>
</g>
<defs>
<linearGradient id="paint0_linear_183_372" x1="-83.5583" y1="37.513" x2="487.442" y2="37.513" gradientUnits="userSpaceOnUse">
<stop stop-color="#F59DAD"/>
<stop offset="1" stop-color="#F8A072"/>
</linearGradient>
<clipPath id="clip0_183_372">
<rect width="485" height="79" fill="white" transform="translate(485 79) rotate(180)"/>
</clipPath>
</defs>
</svg>
