<svg width="51" height="48" viewBox="0 0 51 48" fill="none" xmlns="http://www.w3.org/2000/svg">
<path d="M3 21.3707H5.85185V18.2414H16.2222V21.3707C25.4044 18.7476 29.5161 15.6829 35.4074 8V20.2328C36.1852 19.0948 38 19.3793 38.5185 20.2328V28.4828C37.4815 29.6207 36.4444 29.3362 35.4074 28.4828V40.431C27.7029 32.252 23.4818 29.1407 16.2222 27.6293V30.4741H13.3704L15.4444 41H11.037L8.7037 30.4741H5.85185V27.6293H3V21.3707Z" fill="#DC6E00"/>
<path d="M5.85185 21.3707H3V27.6293H5.85185M5.85185 21.3707V27.6293M5.85185 21.3707V18.2414H16.2222V21.3707M5.85185 27.6293V30.4741H8.7037M16.2222 21.3707C25.4044 18.7476 29.5161 15.6829 35.4074 8V20.2328M16.2222 21.3707V27.6293M16.2222 27.6293V30.4741H13.3704M16.2222 27.6293C23.4818 29.1407 27.7029 32.252 35.4074 40.431V28.4828M35.4074 20.2328C36.1852 19.0948 38 19.3793 38.5185 20.2328V28.4828C37.4815 29.6207 36.4444 29.3362 35.4074 28.4828M35.4074 20.2328V28.4828M8.7037 30.4741L11.037 41H15.4444L13.3704 30.4741M8.7037 30.4741H13.3704M41.0741 22.9397L42.5 17.5L45.5 20.5L49 14.5M40.8148 25.858L43.8498 24.1908L45.5 27L49 24.1908M41.0869 28.0982L44 30.5L43.3498 33.5L46.7998 35" stroke="black" stroke-width="2"/>
</svg>
