<?xml version="1.0" encoding="UTF-8"?>
<svg id="Layer_1" xmlns="http://www.w3.org/2000/svg" xmlns:xlink="http://www.w3.org/1999/xlink" version="1.1" viewBox="80 50 350 300">
  <!-- Generator: Adobe Illustrator 29.1.0, SVG Export Plug-In . SVG Version: 2.1.0 Build 142)  -->
  <defs>
    <style>
      .st0 {
        fill: none;
      }

      .st1 {
        fill: #88e0d8;
      }

      .st2 {
        fill: #ee88b3;
      }

      .st3 {
        clip-path: url(#clippath);
      }

      .st4 {
        fill: #ffd485;
      }

      .st5 {
        fill: #4c4c4c;
      }

      .st6 {
        fill: #f89f72;
      }

      .st7 {
        fill: #a8bdf0;
      }
    </style>
  </defs>
  <g class="st3">
    <g>
      <path class="st4" d="M283.5,240.7h7.6l-19.2,44.7c-1.5-1.7-3.6-2.8-6.1-2.8s-.2,0-.4,0l18-41.9Z"/>
      <path class="st4" d="M322.1,168.4l-9.6,22.3h-7.6l10.8-25c1.5,1.7,3.6,2.8,6.1,2.8s.2,0,.4,0Z"/>
      <path class="st7" d="M196.9,79.4l-95.7,83.9c-.7-2.4-2.4-4.3-4.6-5.3l95.7-83.9c.6,2.4,2.4,4.3,4.6,5.3Z"/>
      <path class="st2" d="M124.8,295.5c-1.9,0-3.6.7-5,1.8l-28.1-124.1c.6.1,1.2.2,1.8.2,1.9,0,3.6-.7,5-1.8l28.1,124.1c-.6-.1-1.2-.2-1.8-.2Z"/>
      <path class="st6" d="M257.8,290.6c0,1.5.4,2.9,1.1,4.2l-126.7,11.6c.3-.9.5-1.8.5-2.8,0-1.5-.4-2.9-1.2-4.1l126.7-11.6c-.3.9-.5,1.8-.5,2.8Z"/>
      <path class="st1" d="M318,153.4c-2.1,1.1-3.7,3.2-4.1,5.7l-110.1-80c2.1-1.1,3.7-3.2,4.1-5.7l110.1,80Z"/>
      <path class="st5" d="M204.5,72c0,2.4-1.9,4.4-4.3,4.5,0,0,0,0,0,0,0,0-.1,0-.2,0-2.5,0-4.5-2-4.5-4.5s0-.5,0-.8c.4-2.1,2.2-3.7,4.4-3.7s3.8,1.4,4.3,3.3c.1.4.2.8.2,1.2Z"/>
      <path class="st5" d="M98,165.4c0,.3,0,.5,0,.8,0,.4-.2.8-.4,1.2-.7,1.5-2.3,2.5-4,2.5s-2-.4-2.8-1c-1-.8-1.7-2.1-1.7-3.5,0-2.4,1.9-4.4,4.3-4.5,0,0,.1,0,.2,0,2.5,0,4.5,2,4.5,4.5Z"/>
      <path class="st5" d="M129.3,303.5c0,1.3-.5,2.4-1.4,3.2h0c-.8.8-1.9,1.3-3.1,1.3-2.5,0-4.5-2-4.5-4.5s.2-1.4.5-2c.7-1.5,2.3-2.5,4-2.5s1.8.3,2.5.8c0,0,.2.1.3.2,1,.8,1.7,2.1,1.7,3.5Z"/>
      <path class="st5" d="M270.3,290.6c0,2.5-2,4.5-4.5,4.5s-1.8-.3-2.5-.8c-1.2-.8-2-2.2-2-3.8s.5-2.4,1.4-3.2h0c.3-.3.6-.6,1-.8h0c.6-.3,1.3-.5,2.1-.5,2.1,0,3.8,1.4,4.3,3.3.1.4.2.8.2,1.2Z"/>
      <path class="st5" d="M326.2,160.5c0,1.7-1,3.2-2.4,4-.6.3-1.3.5-2.1.5-2.1,0-3.8-1.4-4.3-3.3,0,0,0,0,0,0-.1-.4-.2-.8-.2-1.2,0-2.4,1.9-4.4,4.3-4.5,0,0,.1,0,.2,0,2.5,0,4.5,2,4.5,4.5Z"/>
      <g>
        <polygon class="st5" points="212.3 223.6 210.8 223.6 208 201.4 201 201.4 205.7 230.1 216.7 230.1 225.2 201.4 218.1 201.4 212.3 223.6"/>
        <polygon class="st5" points="227.3 201.4 231.4 230.1 238 230.1 234 201.4 227.3 201.4"/>
        <polygon class="st5" points="239.8 207 251.9 207 251.9 207.8 239.8 224.4 239.8 230.1 260.5 230.1 260.5 224.6 248.5 224.6 248.5 223.8 260.5 207.4 260.5 201.4 239.8 201.4 239.8 207"/>
        <path class="st5" d="M279,227c-1.4.2-2.7.2-3.9.2s-2.9-.2-3.9-.7-1.8-1.2-2.3-2.1c-.5-1-.9-2.2-1.2-3.7-.2-1.5-.4-3.2-.5-5.2,0-2,0-3.8.1-5.2.1-1.5.4-2.7.9-3.7.5-1,1.2-1.7,2.1-2.1,1-.5,2.2-.7,3.8-.7s1.6,0,2.5.1,1.8.2,2.7.3c.9.1,1.7.2,2.3.3v-3.1c-.6-.1-1.3-.3-2.2-.4-.9-.2-1.8-.3-2.8-.4-1-.1-2-.2-3-.2-2.2,0-4,.3-5.4,1-1.4.6-2.5,1.6-3.2,2.9-.8,1.3-1.2,2.9-1.5,4.7-.2,1.9-.3,4.1-.2,6.5,0,2.5.3,4.6.7,6.5s1,3.4,1.8,4.7c.9,1.2,2,2.2,3.4,2.8,1.4.6,3.2,1,5.4,1s1.9,0,2.9-.1c1,0,1.9-.2,2.8-.3.9-.1,1.7-.3,2.4-.4l-.2-3.1c-1,.2-2.1.3-3.5.5Z"/>
        <polygon class="st5" points="305.4 201 301.7 201 303.2 212.6 303.3 213.9 289.2 213.9 287.5 201 283.8 201 287.4 230.1 291.1 230.1 290.5 224.4 289.6 217.1 303.8 217.1 305.3 230.1 309 230.1 306 205.9 305.4 201"/>
        <polygon class="st5" points="311.1 201 315.2 230.1 319 230.1 314.8 201 311.1 201"/>
        <polygon class="st5" points="340.7 201 319.6 201 319.2 204.3 327.9 204.3 325.2 230.1 329 230.1 331.7 204.3 340.3 204.3 340.7 201"/>
        <path class="st5" d="M360.3,215.4c1-1.4,1.7-3.2,2-5.3.3-2.1.2-3.8-.4-5.2-.5-1.4-1.5-2.4-2.8-3-1.3-.6-3-.9-5.2-.9h-10.8l-4.1,29.1h3.7l1.5-10.9h7.9l3.5,10.9h4l-3.6-11.7c1.8-.6,3.3-1.6,4.3-3.1ZM358.5,209.8c-.1,1.2-.5,2.2-1,3.2-.5.9-1.2,1.7-2.1,2.2-.9.5-2.1.8-3.4.8h-7.2l1.7-11.8h7.3c1.9,0,3.3.5,4.1,1.4.8.9,1,2.3.7,4.2Z"/>
        <path class="st5" d="M377.7,201h-7.7l-7.8,29.1h3.7l2-7.2h12l1.6,7.2h3.7l-7.4-29.1ZM368.6,219.8l4.2-15.6h2.1l4.2,15.6h-10.5Z"/>
      </g>
    </g>
  </g>
</svg>