<svg xmlns="http://www.w3.org/2000/svg" fill="none" viewBox="0 0 485 79">
  <g clip-path="url(#a)">
    <mask id="b" width="471" height="82" x="3" y="-1" maskUnits="userSpaceOnUse" style="mask-type:alpha">
      <path fill="#d9d9d9" d="M101.605-1 474 1.44l-34.537 32.703-44.547 18.06-4.004 26.845L3 81z"/>
    </mask>
    <g mask="url(#b)">
      <path fill="url(#c)" d="M0 0h485v79H0z"/>
    </g>
    <path stroke="#fff" stroke-width="2" d="m159.357 27.647 34.21-59.496 73.626 16.361v67.64l-65.445 29.04z"/>
    <path stroke="#fff" stroke-width="2" d="m267 52 57.5 13.5 34.5-53-55-41M159.87 26.493l-30 53m29.618-51.634-57-34m222.496 71.32-4 22M107.349-5.642l-49.35 42L98 79.5M57.835 36.55-2 85.5m360.751-74.16 36 41m-1.133-.264 46-19m-.599 1.12-7-35m7.284 34.087L475 .5m-81.009 50.632-4 30m-30.78-68.746 14-18"/>
  </g>
  <defs>
    <linearGradient id="c" x1="0" x2="485" y1="39.5" y2="39.5" gradientUnits="userSpaceOnUse">
      <stop stop-color="#ffe6b8"/>
      <stop offset="1" stop-color="#f59dad"/>
    </linearGradient>
    <clipPath id="a">
      <path fill="#fff" d="M0 0h485v79H0z"/>
    </clipPath>
  </defs>
</svg>