<svg xmlns="http://www.w3.org/2000/svg" width="486" height="209" fill="none" viewBox="0 0 486 209">
  <g clip-path="url(#a)" opacity=".7">
    <path fill="url(#b)" d="m195.388-118.786 75.094 10.731 113.056 74.097 19.924-3.409L470.54-3.855l-13.345 60.753-67.502 42.116-23.642 21.022-31.063-.892-47.376 25.53-42.692 22.503-42.912-8.634-12.573 27.515-33.67 4.269-26.276 7.521-16.942-14.326-27.58-2.041-25.936 11.152-3.175-40.924 7.543-18.101-35.341-18.904 5.223-38.908-13.726-28.641 14.33-23.167-4.347-50.69L44.74-86.49l63.176-11.545-11.763-37.684 47.078-22.937z"/>
    <path stroke="#fff" stroke-width="2" d="m229.349 10.344 57.795-34.322m-57.795 34.322L153.378-47.28m75.971 57.625.043 51.918m57.752-86.24-16.662-84.077m16.662 84.077L337.8 24.766m-67.318-132.821-75.094-10.731m75.094 10.731 113.056 74.097m-188.15-84.828-42.01 71.505m42.01-71.505-52.157-39.869-47.078 22.937 11.763 37.684m45.462 50.753L107.323-4.582m46.055-42.699-45.462-50.753M229.392 62.262l-98.888-3.367m98.888 3.367 82.472 14.417m-82.472-14.417 16.657 48.892M130.504 58.895 107.323-4.582m23.181 63.477-32.886 5.436m32.886-5.436 7.162 28.481M107.323-4.582l-77.785-22.12m78.378-71.332L44.74-86.49 29.538-26.703m0 0 4.348 50.691m277.978 52.691L337.8 24.766m-25.936 51.913 23.124 42.465m2.812-94.378 30.982 28.183M97.618 64.33 33.886 23.988m63.732 40.343 40.048 23.045M97.618 64.331l-22.425 15.68M33.886 23.988 19.554 47.155l13.727 28.641m104.385 11.58 80.202 43.713m-80.202-43.713-3.104 31.291m83.306 12.422 28.181-19.935m-28.181 19.935-15.86 27.454m44.041-47.389 41.563 33.52m81.17-91.725 14.756-86.907m-14.756 86.907 20.911 46.065m-6.155-132.972 19.924-3.409L470.54-3.855l-13.345 60.753-67.502 42.116m-54.705 20.13-47.376 25.53m47.376-25.53 31.063.892 23.642-21.022m-102.081 45.66-42.692 22.503-42.912-8.634m-67.446-39.876-41.838 3.034m41.838-3.034 10.241 21.726m-52.079-18.692-17.531-41.69m17.531 41.69L63.4 133.608m29.325-11.907-5.02 22.818M75.192 80.011 33.28 75.796m0 0-5.223 38.908 35.341 18.904m0 0-7.543 18.101m88.947-11.316-23.54 21.525m23.54-21.525 57.205 18.15m-57.205-18.15-6.999 22.749m64.204-4.599-12.573 27.515-33.67 4.269m-34.502-28.409-33.56-17.399m33.56 17.399 16.541 1.224m-16.541-1.224-8.716 21.604m-24.844-39.003-13.567 17.23m81.629 28.578-17.961-27.185m17.961 27.185-26.276 7.521-16.942-14.326m0 0-27.58-2.041m-10.83-19.732-18.28-10.04m18.28 10.04 10.83 19.732m-29.11-29.772 3.174 40.924 25.937-11.152"/>
  </g>
  <defs>
    <linearGradient id="b" x1="203.729" x2="185.355" y1="157.368" y2="-20.68" gradientUnits="userSpaceOnUse">
      <stop stop-color="#ffd485"/>
      <stop offset="1" stop-color="#f89f72"/>
    </linearGradient>
    <clipPath id="a">
      <path fill="#fff" d="M0 0h486v209H0z"/>
    </clipPath>
  </defs>
</svg>