<svg style="width:100%" viewBox="0 0 30 32" fill="none" xmlns="http://www.w3.org/2000/svg">
<path d="M27.3241 2.84116H23.7098V1.6364C23.7098 1.31688 23.5829 1.01044 23.3569 0.784507C23.131 0.55857 22.8246 0.431641 22.505 0.431641C22.1855 0.431641 21.8791 0.55857 21.6532 0.784507C21.4272 1.01044 21.3003 1.31688 21.3003 1.6364V2.84116H9.25267V1.6364C9.25267 1.31688 9.12574 1.01044 8.8998 0.784507C8.67387 0.55857 8.36743 0.431641 8.04791 0.431641C7.72838 0.431641 7.42195 0.55857 7.19601 0.784507C6.97008 1.01044 6.84315 1.31688 6.84315 1.6364V2.84116H3.22886C2.58981 2.84116 1.97694 3.09502 1.52507 3.5469C1.0732 3.99877 0.819336 4.61164 0.819336 5.25069V29.3459C0.819336 29.985 1.0732 30.5978 1.52507 31.0497C1.97694 31.5016 2.58981 31.7554 3.22886 31.7554H27.3241C27.9631 31.7554 28.576 31.5016 29.0279 31.0497C29.4798 30.5978 29.7336 29.985 29.7336 29.3459V5.25069C29.7336 4.61164 29.4798 3.99877 29.0279 3.5469C28.576 3.09502 27.9631 2.84116 27.3241 2.84116ZM27.3241 29.3459H3.22886V5.25069H6.84315V6.45545C6.84315 6.77497 6.97008 7.08141 7.19601 7.30734C7.42195 7.53328 7.72838 7.66021 8.04791 7.66021C8.36743 7.66021 8.67387 7.53328 8.8998 7.30734C9.12574 7.08141 9.25267 6.77497 9.25267 6.45545V5.25069H21.3003V6.45545C21.3003 6.77497 21.4272 7.08141 21.6532 7.30734C21.8791 7.53328 22.1855 7.66021 22.505 7.66021C22.8246 7.66021 23.131 7.53328 23.3569 7.30734C23.5829 7.08141 23.7098 6.77497 23.7098 6.45545V5.25069H27.3241V29.3459ZM18.8908 11.2745C18.2066 11.2741 17.5303 11.4198 16.907 11.7019C16.2837 11.9839 15.7278 12.3958 15.2765 12.91C14.6292 12.1761 13.7739 11.6566 12.8243 11.4206C11.8747 11.1847 10.8757 11.2434 9.96023 11.589C9.04477 11.9345 8.25621 12.5506 7.6994 13.3553C7.1426 14.1599 6.84394 15.115 6.84315 16.0935C6.84315 21.5933 14.4151 25.4425 14.7373 25.6051C14.9047 25.6889 15.0893 25.7325 15.2765 25.7325C15.4636 25.7325 15.6482 25.6889 15.8156 25.6051C16.1379 25.4425 23.7098 21.5933 23.7098 16.0935C23.7098 14.8155 23.2021 13.5897 22.2983 12.686C21.3946 11.7822 20.1689 11.2745 18.8908 11.2745ZM15.2765 23.161C13.1998 21.9878 9.25267 19.1326 9.25267 16.0935C9.25267 15.4545 9.50653 14.8416 9.9584 14.3898C10.4103 13.9379 11.0231 13.684 11.6622 13.684C12.3012 13.684 12.9141 13.9379 13.366 14.3898C13.8179 14.8416 14.0717 15.4545 14.0717 16.0935C14.0717 16.4131 14.1986 16.7195 14.4246 16.9454C14.6505 17.1714 14.957 17.2983 15.2765 17.2983C15.596 17.2983 15.9024 17.1714 16.1284 16.9454C16.3543 16.7195 16.4812 16.4131 16.4812 16.0935C16.4812 15.4545 16.7351 14.8416 17.187 14.3898C17.6388 13.9379 18.2517 13.684 18.8908 13.684C19.5298 13.684 20.1427 13.9379 20.5946 14.3898C21.0464 14.8416 21.3003 15.4545 21.3003 16.0935C21.3003 19.1341 17.3532 21.9893 15.2765 23.161Z" fill="#68B9B2"/>
</svg>
