<svg width="27" height="35" viewBox="0 0 27 35" fill="none" xmlns="http://www.w3.org/2000/svg">
<path d="M13.2763 7.72076C12.0849 7.72076 10.9203 8.07405 9.92966 8.73595C8.93905 9.39786 8.16696 10.3386 7.71103 11.4394C7.2551 12.5401 7.13581 13.7513 7.36824 14.9198C7.60067 16.0883 8.17439 17.1616 9.01683 18.004C9.85927 18.8465 10.9326 19.4202 12.1011 19.6526C13.2696 19.8851 14.4808 19.7658 15.5815 19.3098C16.6822 18.8539 17.623 18.0818 18.2849 17.0912C18.9468 16.1006 19.3001 14.936 19.3001 13.7446C19.3001 12.147 18.6655 10.6148 17.5358 9.48509C16.4061 8.35541 14.8739 7.72076 13.2763 7.72076ZM13.2763 17.3589C12.5615 17.3589 11.8627 17.1469 11.2683 16.7497C10.674 16.3526 10.2107 15.7881 9.93714 15.1277C9.66358 14.4673 9.59201 13.7406 9.73147 13.0395C9.87093 12.3384 10.2152 11.6943 10.7206 11.1889C11.2261 10.6834 11.8701 10.3392 12.5712 10.1997C13.2723 10.0603 13.999 10.1318 14.6594 10.4054C15.3199 10.679 15.8843 11.1422 16.2815 11.7366C16.6786 12.3309 16.8906 13.0297 16.8906 13.7446C16.8906 14.7031 16.5098 15.6224 15.832 16.3003C15.1542 16.9781 14.2349 17.3589 13.2763 17.3589ZM13.2763 0.492188C9.76278 0.496173 6.3943 1.89368 3.90986 4.37812C1.42542 6.86256 0.0279116 10.231 0.0239258 13.7446C0.0239258 18.4733 2.20906 23.4851 6.34893 28.2394C8.20911 30.3877 10.3027 32.3222 12.5911 34.0072C12.7937 34.1491 13.035 34.2252 13.2823 34.2252C13.5297 34.2252 13.771 34.1491 13.9736 34.0072C16.2577 32.3215 18.3473 30.387 20.2037 28.2394C24.3375 23.4851 26.5287 18.4733 26.5287 13.7446C26.5247 10.231 25.1272 6.86256 22.6428 4.37812C20.1583 1.89368 16.7898 0.496173 13.2763 0.492188ZM13.2763 31.5148C10.787 29.5571 2.43345 22.3661 2.43345 13.7446C2.43345 10.8689 3.57582 8.11094 5.60925 6.07751C7.64268 4.04408 10.4006 2.90171 13.2763 2.90171C16.152 2.90171 18.9099 4.04408 20.9434 6.07751C22.9768 8.11094 24.1192 10.8689 24.1192 13.7446C24.1192 22.3631 15.7656 29.5571 13.2763 31.5148Z" fill="#68B9B2"/>
</svg>
