<svg width="486" height="209" viewBox="0 0 486 209" fill="none" xmlns="http://www.w3.org/2000/svg">
<g clip-path="url(#clip0_205_64)">
<g opacity="0.7">
<path d="M195.388 -118.786L270.482 -108.055L383.538 -33.9585L403.462 -37.3669L470.54 -3.85533L457.195 56.8979L389.693 99.0144L366.051 120.036L334.988 119.144L287.612 144.674L244.92 167.177L202.008 158.543L189.435 186.058L155.765 190.327L129.489 197.848L112.547 183.522L84.9676 181.481L59.0306 192.633L55.8561 151.709L63.3993 133.608L28.0575 114.704L33.2809 75.7961L19.5545 47.1546L33.8858 23.988L29.5375 -26.7026L44.7401 -86.4892L107.916 -98.0342L96.1533 -135.718L143.231 -158.655L195.388 -118.786Z" fill="url(#paint0_linear_205_64)"/>
<path d="M229.349 10.3442L287.144 -23.9785M229.349 10.3442L153.378 -47.2809M229.349 10.3442L229.392 62.262M287.144 -23.9785L270.482 -108.055M287.144 -23.9785L337.8 24.766M270.482 -108.055L195.388 -118.786M270.482 -108.055L383.538 -33.9585M195.388 -118.786L153.378 -47.2809M195.388 -118.786L143.231 -158.655L96.1533 -135.718L107.916 -98.0342M153.378 -47.2809L107.323 -4.58227M153.378 -47.2809L107.916 -98.0342M229.392 62.262L130.504 58.8954M229.392 62.262L311.864 76.6793M229.392 62.262L246.049 111.154M130.504 58.8954L107.323 -4.58227M130.504 58.8954L97.6175 64.3314M130.504 58.8954L137.666 87.3761M107.323 -4.58227L29.5375 -26.7026M107.916 -98.0342L44.7401 -86.4892L29.5375 -26.7026M29.5375 -26.7026L33.8858 23.988M311.864 76.6793L337.8 24.766M311.864 76.6793L334.988 119.144M337.8 24.766L368.782 52.9487M97.6175 64.3314L33.8858 23.988M97.6175 64.3314L137.666 87.3761M97.6175 64.3314L75.1926 80.0112M33.8858 23.988L19.5545 47.1546L33.2809 75.7961M137.666 87.3761L217.868 131.089M137.666 87.3761L134.562 118.667M217.868 131.089L246.049 111.154M217.868 131.089L202.008 158.543M246.049 111.154L287.612 144.674M368.782 52.9487L383.538 -33.9585M368.782 52.9487L389.693 99.0144M383.538 -33.9585L403.462 -37.3669L470.54 -3.85533L457.195 56.8979L389.693 99.0144M334.988 119.144L287.612 144.674M334.988 119.144L366.051 120.036L389.693 99.0144M287.612 144.674L244.92 167.177L202.008 158.543M134.562 118.667L92.7242 121.701M134.562 118.667L144.803 140.393M92.7242 121.701L75.1926 80.0112M92.7242 121.701L63.3993 133.608M92.7242 121.701L87.7033 144.519M75.1926 80.0112L33.2809 75.7961M33.2809 75.7961L28.0575 114.704L63.3993 133.608M63.3993 133.608L55.8561 151.709M144.803 140.393L121.263 161.918M144.803 140.393L202.008 158.543M144.803 140.393L137.804 163.142M202.008 158.543L189.435 186.058L155.765 190.327M121.263 161.918L87.7033 144.519M121.263 161.918L137.804 163.142M121.263 161.918L112.547 183.522M87.7033 144.519L74.1365 161.749M155.765 190.327L137.804 163.142M155.765 190.327L129.489 197.848L112.547 183.522M112.547 183.522L84.9676 181.481M74.1365 161.749L55.8561 151.709M74.1365 161.749L84.9676 181.481M55.8561 151.709L59.0306 192.633L84.9676 181.481" stroke="white" stroke-width="2"/>
</g>
</g>
<defs>
<linearGradient id="paint0_linear_205_64" x1="203.729" y1="157.368" x2="185.355" y2="-20.6796" gradientUnits="userSpaceOnUse">
<stop stop-color="#FFD485"/>
<stop offset="1" stop-color="#F89F72"/>
</linearGradient>
<clipPath id="clip0_205_64">
<rect width="486" height="209" fill="white"/>
</clipPath>
</defs>
</svg>
