<?xml version="1.0" encoding="UTF-8"?>
<svg id="Layer_1" xmlns="http://www.w3.org/2000/svg" version="1.1" viewBox="0 0 627.94 93.17">
  <!-- Generator: Adobe Illustrator 29.7.1, SVG Export Plug-In . SVG Version: 2.1.1 Build 8)  -->
  <defs>
    <style>
      .st0 {
        stroke: #f23d26;
      }

      .st1 {
        stroke: #f8502b;
      }

      .st2 {
        fill: none;
      }

      .st3 {
        stroke: #fec764;
      }

      .st4 {
        stroke: #fec966;
      }

      .st5 {
        stroke: #febc59;
      }

      .st6 {
        stroke: #feac4c;
      }

      .st7 {
        stroke: #fecf6d;
      }

      .st8 {
        stroke: #fa592d;
      }

      .st9 {
        stroke: #fed16f;
      }

      .st10 {
        stroke: #fecc6a;
      }

      .st11 {
        stroke: #fd7836;
      }

      .st12 {
        stroke: #f8512b;
      }

      .st13 {
        stroke: #fa5c2e;
      }

      .st14 {
        stroke: #fd7e38;
      }

      .st15 {
        stroke: #fea94a;
      }

      .st16 {
        stroke: #febf5b;
      }

      .st17 {
        stroke: #fc7335;
      }

      .st18 {
        stroke: #e92b22;
      }

      .st19 {
        stroke: #feaa4a;
      }

      .st20 {
        stroke: #f64728;
      }

      .st21 {
        stroke: #f03724;
      }

      .st22 {
        stroke: #feae4d;
      }

      .st23 {
        stroke: #fec562;
      }

      .st24 {
        stroke: #fc7235;
      }

      .st25 {
        stroke: #fd9440;
      }

      .st26 {
        stroke: #f64929;
      }

      .st27 {
        stroke: #fd9b42;
      }

      .st28 {
        stroke: #fd9c43;
      }

      .st29 {
        stroke: #fecd6b;
      }

      .st30 {
        stroke: #df1d20;
      }

      .st31 {
        fill: #f36018;
      }

      .st32 {
        stroke: #feb452;
      }

      .st33 {
        stroke: #fed778;
      }

      .st34 {
        stroke: #f44327;
      }

      .st35 {
        stroke: #fc6731;
      }

      .st36 {
        stroke: #fed575;
      }

      .st37 {
        stroke: #fea145;
      }

      .st38 {
        stroke: #fb6430;
      }

      .st39 {
        stroke: #fc6d33;
      }

      .st40 {
        stroke: #feba57;
      }

      .st41 {
        stroke: #fd9d44;
      }

      .st42 {
        stroke: #fed676;
      }

      .st43 {
        stroke: #fec25f;
      }

      .st44 {
        stroke: #f64a29;
      }

      .st45 {
        stroke: #fd9a42;
      }

      .st46 {
        stroke: #e42220;
      }

      .st47 {
        stroke: #fd8c3d;
      }

      .st48 {
        stroke: #fd7b37;
      }

      .st49 {
        stroke: #d91520;
      }

      .st50 {
        stroke: #e52421;
      }

      .st51 {
        stroke: #fd7c37;
      }

      .st52 {
        stroke: #fd8d3d;
      }

      .st53 {
        stroke: #f13a25;
      }

      .st54 {
        stroke: #fea648;
      }

      .st55 {
        stroke: #feca67;
      }

      .st56 {
        stroke: #fa5b2e;
      }

      .st57 {
        stroke: #e62521;
      }

      .st58 {
        stroke: #fd8e3e;
      }

      .st59 {
        stroke: #fb5e2f;
      }

      .st60 {
        stroke: #febd59;
      }

      .st61 {
        stroke: #fd9540;
      }

      .st62 {
        stroke: #feb451;
      }

      .st63 {
        stroke: #fec864;
      }

      .st64 {
        stroke: #fedb7d;
      }

      .st65 {
        stroke: #fed474;
      }

      .st66 {
        stroke: #fedc7f;
      }

      .st67 {
        stroke: #e92a21;
      }

      .st68 {
        stroke: #fd7736;
      }

      .st69 {
        stroke: #fd8b3c;
      }

      .st70 {
        stroke: #febd5a;
      }

      .st71 {
        stroke: #d41221;
      }

      .st72 {
        stroke: #f9572d;
      }

      .st73 {
        stroke: #ea2c22;
      }

      .st74 {
        stroke: #ef3524;
      }

      .st75 {
        stroke: #f23c25;
      }

      .st76 {
        stroke: #fa582d;
      }

      .st77 {
        stroke: #fb6230;
      }

      .st78 {
        stroke: #fed777;
      }

      .st79 {
        stroke: #fec15d;
      }

      .st80 {
        stroke: #fedc80;
      }

      .st81 {
        stroke: #f74b29;
      }

      .st82 {
        stroke: #fea849;
      }

      .st83 {
        stroke: #ea2d22;
      }

      .st84 {
        stroke: #f44026;
      }

      .st85 {
        stroke: #fd8139;
      }

      .st86 {
        stroke: #feb754;
      }

      .st87 {
        stroke: #fecc69;
      }

      .st88 {
        stroke: #fed271;
      }

      .st89 {
        stroke: #e11e20;
      }

      .st90 {
        stroke: #ec3023;
      }

      .st91 {
        stroke: #fd923f;
      }

      .st92 {
        stroke: #feb956;
      }

      .st93 {
        stroke: #fc6c33;
      }

      .st94 {
        stroke: #fedf84;
      }

      .st95 {
        stroke: #f13b25;
      }

      .st96 {
        stroke: #f54628;
      }

      .st97 {
        stroke: #f9532c;
      }

      .st98 {
        stroke: #fd893c;
      }

      .st99 {
        stroke: #fd843a;
      }

      .st100 {
        stroke: #fd8b3d;
      }

      .st101 {
        stroke: #d91620;
      }

      .st102 {
        stroke: #feb04f;
      }

      .st103 {
        stroke: #d31121;
      }

      .st104 {
        stroke: #fee086;
      }

      .st105 {
        stroke: #feb955;
      }

      .st106 {
        stroke: #fed473;
      }

      .st107 {
        stroke: #fd863b;
      }

      .st108 {
        stroke: #d81520;
      }

      .st109 {
        stroke: #fd9741;
      }

      .st110 {
        stroke: #fede83;
      }

      .st111 {
        stroke: #ee3323;
      }

      .st112 {
        stroke: #fea447;
      }

      .st113 {
        stroke: #f84f2a;
      }

      .st114 {
        fill: #fff;
      }

      .st115 {
        stroke: #fedb7e;
      }

      .st116 {
        stroke: #fed372;
      }

      .st117 {
        stroke: #fd9e44;
      }

      .st118 {
        stroke: #de1b20;
      }

      .st119 {
        stroke: #e32120;
      }

      .st120 {
        stroke: #e42320;
      }

      .st121 {
        stroke: #febe5b;
      }

      .st122 {
        stroke: #febb58;
      }

      .st123 {
        stroke: #fea347;
      }

      .st124 {
        stroke: #fa5d2e;
      }

      .st125 {
        stroke: #fc6832;
      }

      .st126 {
        stroke: #fece6b;
      }

      .st127 {
        stroke: #e01d20;
      }

      .st128 {
        stroke: #fd903e;
      }

      .st129 {
        stroke: #fd873b;
      }

      .st130 {
        stroke: #fd8f3e;
      }

      .st131 {
        stroke: #fd7937;
      }

      .st132 {
        stroke: #fa5a2e;
      }

      .st133 {
        stroke: #feaf4e;
      }

      .st134 {
        stroke: #fec05d;
      }

      .st135 {
        stroke: #f84e2a;
      }

      .st136 {
        stroke: #fec35f;
      }

      .st137 {
        stroke: #feda7c;
      }

      .st138 {
        stroke: #fec05c;
      }

      .st139 {
        stroke: #fc7034;
      }

      .st140 {
        stroke: #feb14f;
      }

      .st141 {
        stroke: #d51221;
      }

      .st142 {
        stroke: #fec662;
      }

      .st143 {
        stroke: #fd8039;
      }

      .st144 {
        stroke: #feb150;
      }

      .st145 {
        stroke: #eb2d22;
      }

      .st146 {
        stroke: #f74c2a;
      }

      .st147 {
        stroke: #fecb68;
      }

      .st148 {
        stroke: #d71420;
      }

      .st149 {
        stroke: #f44227;
      }

      .st150 {
        stroke: #fea548;
      }

      .st151 {
        stroke: #d61320;
      }

      .st152 {
        stroke: #fd9640;
      }

      .st153 {
        stroke: #fedd81;
      }

      .st154 {
        stroke: #feb653;
      }

      .st155 {
        stroke: #e82921;
      }

      .st156 {
        stroke: #fd9942;
      }

      .st157 {
        stroke: #fd883b;
      }

      .st158 {
        stroke: #feb654;
      }

      .st159 {
        stroke: #e82821;
      }

      .st160 {
        stroke: #feda7d;
      }

      .st161 {
        stroke: #fee087;
      }

      .st162 {
        stroke: #fd833a;
      }

      .st163 {
        stroke: #d41121;
      }

      .st164 {
        stroke: #f9552c;
      }

      .st165 {
        stroke: #f9562c;
      }

      .st166 {
        stroke: #f54528;
      }

      .st167 {
        stroke: #f54427;
      }

      .st168 {
        stroke: #fb602f;
      }

      .st169 {
        stroke: #fd7d38;
      }

      .st170 {
        stroke: #f33e26;
      }

      .st171 {
        stroke: #fead4d;
      }

      .st172 {
        stroke: #fd913f;
      }

      .st173 {
        stroke: #dd1a20;
      }

      .st174 {
        stroke: #dc1920;
      }

      .st175 {
        stroke: #f64828;
      }

      .st176 {
        stroke: #da1720;
      }

      .st177 {
        stroke: #feaa4b;
      }

      .st178 {
        stroke: #fea749;
      }

      .st179 {
        stroke: #fc6e33;
      }

      .st180 {
        stroke: #fede82;
      }

      .st181 {
        stroke: #fece6c;
      }

      .st182 {
        stroke: #fec460;
      }

      .st183 {
        stroke: #febb57;
      }

      .st184 {
        stroke: #fea246;
      }

      .st185 {
        stroke: #f03924;
      }

      .st186 {
        stroke: #feb351;
      }

      .st187 {
        stroke: #f33f26;
      }

      .st188 {
        stroke: #df1c20;
      }

      .st189 {
        stroke: #fd8239;
      }

      .st190 {
        stroke: #fed97a;
      }

      .st191 {
        stroke: #ef3624;
      }

      .st192 {
        stroke: #fc6f34;
      }

      .st193 {
        stroke: #fc6b32;
      }

      .st194 {
        stroke: #fec25e;
      }

      .st195 {
        stroke: #fc7134;
      }

      .st196 {
        fill: #00452a;
      }

      .st197 {
        stroke: #feb552;
      }

      .st198 {
        stroke: #ed3223;
      }

      .st199 {
        stroke: #fec763;
      }

      .st200 {
        stroke: #fc7536;
      }

      .st201 {
        stroke: #fd7a37;
      }

      .st202 {
        stroke: #ed3123;
      }

      .st203 {
        stroke: #e52320;
      }

      .st204 {
        stroke: #fed879;
      }

      .st205 {
        stroke: #fec461;
      }

      .st206 {
        stroke: #e22020;
      }

      .st207 {
        stroke: #fec965;
      }

      .st208 {
        stroke: #feab4b;
      }

      .st209 {
        stroke: #fd853a;
      }

      .st210 {
        stroke: #fb612f;
      }

      .st211 {
        stroke: #ee3423;
      }

      .st212 {
        stroke: #fd933f;
      }

      .st213 {
        stroke: #f74d2a;
      }

      .st214 {
        stroke: #fd9f45;
      }

      .st215 {
        stroke: #fedf85;
      }

      .st216 {
        stroke: #f9522b;
      }

      .st217 {
        stroke: #e72721;
      }

      .st218 {
        stroke: #fd7f38;
      }

      .st219 {
        stroke: #fc7435;
      }

      .st220 {
        stroke: #fd9841;
      }

      .st221 {
        stroke: #fd8a3c;
      }

      .st222 {
        stroke: #ec2f22;
      }

      .st223 {
        stroke: #fed97b;
      }

      .st224 {
        stroke: #f03824;
      }

      .st225 {
        stroke: #fed170;
      }

      .st226 {
        stroke: #fb6330;
      }

      .st227 {
        stroke: #e62621;
      }

      .st228 {
        stroke: #feb250;
      }

      .st229 {
        stroke: #eb2e22;
      }

      .st230 {
        stroke: #e11f20;
      }

      .st231 {
        stroke: #fed06e;
      }

      .st232 {
        stroke: #fc6a32;
      }

      .st233 {
        stroke: #fd9b43;
      }

      .st234 {
        stroke: #feb855;
      }

      .st235 {
        stroke: #fb6531;
      }

      .st236 {
        stroke: #fea045;
      }

      .st237 {
        stroke: #fb6631;
      }

      .st238 {
        stroke: #db1820;
      }
    </style>
  </defs>
  <path class="st196" d="M417.09,16.46v1.61h-1.78c-1.37,0-1.81.34-1.81,1.64v13.81c0,4.34,2.15,6.32,6.84,6.32,3.08,0,5.13-1.09,6.08-3.18.44-.96.51-2.53.51-4.75v-10.77c0-2.08-.45-3.08-2.46-3.08h-1.5v-1.61h9.4v1.61h-1.26c-1.95,0-2.49.89-2.49,3.08v10.9c0,6.7-2.46,9.67-9.47,9.67-6.19,0-9.33-2.77-9.33-8.24v-13.77c0-1.3-.38-1.64-1.81-1.64h-1.98v-1.61h11.07Z"/>
  <path class="st196" d="M433.9,39.67c3.14-.24,3.66-1.33,3.66-4.38v-16.13c-.51-.92-1.43-1.13-3.08-1.13h-.58v-1.57h6.66l13.6,18.63v-12.78c0-3.31-.65-4.34-4.07-4.37v-1.47h9.54v1.47c-3.08.14-3.73,1.23-3.73,4.37v19.45h-1.37l-15.21-20.75v14.29c0,3.21.72,4.38,4.07,4.38v1.47h-9.5v-1.47Z"/>
  <path class="st196" d="M461.92,39.53h1.85c1.4,0,1.85-.34,1.85-1.64v-18.18c0-1.3-.45-1.64-1.85-1.64h-1.85v-1.61h11.14v1.61h-1.85c-1.4,0-1.81.34-1.81,1.64v18.18c0,1.3.41,1.64,1.81,1.64h1.85v1.61h-11.14v-1.61Z"/>
  <path class="st196" d="M485.84,41.75l-8.65-22.18c-.51-1.33-.75-1.5-2.46-1.5h-.75v-1.61h10.49v1.61h-1.26c-1.4,0-2.05.14-2.05.92,0,.24.07.68.27,1.2l6.05,15.45,5.37-13.81c.31-.82.44-1.5.44-1.95,0-1.27-.79-1.81-2.46-1.81h-.96v-1.61h8.92v1.61h-.24c-1.98,0-2.67.85-3.45,2.9l-7.93,20.78h-1.33Z"/>
  <path class="st196" d="M499.44,39.53h1.78c1.37,0,1.81-.31,1.81-1.64v-18.18c0-1.33-.44-1.64-1.81-1.64h-1.78v-1.61h19.99l.44,8.72h-1.47c-.44-3.01-1.33-4.99-2.39-5.91-1.2-.99-3.21-1.26-6.36-1.26-2.26,0-2.9.1-2.9,1.71v7.83h.48c3.52,0,4.85-1.16,5.16-4.72h1.44v10.87h-1.44c-.31-3.55-1.61-4.68-5.16-4.68h-.48v8.89c0,1.67.75,1.74,3.18,1.74,2.87,0,4.92-.21,6.29-.89,1.57-.79,2.49-3.08,3.21-6.97h1.3l-.51,9.36h-20.78v-1.61Z"/>
  <path class="st196" d="M530.54,27.53l1.67.07c.41.03.79.03,1.16.03,4.55,0,6.56-1.4,6.56-4.89s-1.64-4.75-5.43-4.75h-2.22c-1.43,0-1.74.34-1.74,1.5v8.03ZM523.23,39.53h1.78c1.37,0,1.81-.31,1.81-1.64v-18.18c0-1.33-.45-1.64-1.81-1.64h-1.78v-1.61h13.67c4.14,0,6.9,2.43,6.9,6.05s-2.53,5.61-7.55,6.15c2.77.38,4.2,1.71,4.82,4.41l.92,3.86c.34,1.5.79,2.26,1.54,2.26.92,0,1.33-1.16,1.4-3.59h1.3c0,.27.03.55.03.79,0,3.49-1.54,5.37-4.14,5.37s-3.69-1.5-4.07-4.82l-.38-3.42c-.34-3.28-2.02-4.34-5.3-4.34h-1.85v8.71c0,1.33.41,1.64,1.78,1.64h2.12v1.61h-11.21v-1.61Z"/>
  <path class="st196" d="M549.23,41.54h-1.2l-.17-9.91h1.4c1.03,5.64,3.9,8.58,8.27,8.58,3.72,0,5.77-1.88,5.77-4.89,0-1.44-.55-2.56-1.5-3.25-1.2-.85-3.11-1.2-5.6-1.88-5.47-1.47-8.1-2.84-8.1-7.35,0-4.24,2.84-6.97,7.28-6.97,2.49,0,4.68.82,6.39,2.39l1.33-2.05h1.26l.38,8.89h-1.33c-1.3-5.09-4-7.66-8.03-7.66-3.01,0-4.72,1.5-4.72,4.13,0,3.28,2.56,3.66,7.11,4.79,2.46.61,4.51,1.13,6.08,2.56,1.33,1.23,2.08,3.08,2.08,5.26,0,4.75-3.01,7.55-8.48,7.55-2.67,0-5.16-.96-6.8-2.56l-1.43,2.36Z"/>
  <path class="st196" d="M568.16,39.53h1.85c1.4,0,1.85-.34,1.85-1.64v-18.18c0-1.3-.44-1.64-1.85-1.64h-1.85v-1.61h11.14v1.61h-1.85c-1.4,0-1.81.34-1.81,1.64v18.18c0,1.3.41,1.64,1.81,1.64h1.85v1.61h-11.14v-1.61Z"/>
  <path class="st196" d="M596.12,39.53h2.19v1.61h-11.69v-1.61h2.19c1.37,0,1.81-.31,1.81-1.64v-18.32c0-1.81-.55-1.81-2.25-1.81-3.28,0-4.55,2.46-5.33,8.17h-1.3l.48-9.47h20.51l.51,9.47h-1.3c-.92-6.32-2.08-8.17-6.02-8.17-1.26,0-1.57.41-1.57,1.81v18.32c0,1.33.41,1.64,1.78,1.64Z"/>
  <path class="st196" d="M619.9,39.53h2.12v1.61h-11.59v-1.61h2.15c1.33,0,1.81-.34,1.81-1.64v-6.97l-6.9-10.97c-.82-1.33-1.2-1.88-2.8-1.88h-.65v-1.61h10.53v1.61h-1.4c-1.16,0-1.78.2-1.78.78,0,.34.21.68.51,1.2l5.44,8.58,4.48-7.79c.27-.48.41-.89.41-1.33,0-.96-.79-1.43-2.36-1.43h-.96v-1.61h9.02v1.61h-.65c-1.57,0-2.05.55-2.84,1.88l-6.32,10.8v7.14c0,1.3.44,1.64,1.78,1.64Z"/>
  <path class="st31" d="M420.47,75.8c4.92,0,7.31-3.79,7.31-11.38s-2.29-11.38-7.31-11.38-7.31,3.73-7.31,11.38,2.32,11.38,7.31,11.38ZM411.93,55.26c2.19-2.49,5.13-3.79,8.54-3.79s6.22,1.23,8.48,3.76c2.15,2.43,3.25,5.5,3.25,9.19s-.89,6.49-3.01,8.96c-2.29,2.67-5.16,3.96-8.71,3.96s-6.39-1.26-8.71-3.96c-2.12-2.46-3.04-5.33-3.04-8.96s1.13-6.8,3.21-9.16Z"/>
  <path class="st31" d="M432.47,75.15h1.78c1.37,0,1.81-.31,1.81-1.64v-18.18c0-1.33-.44-1.64-1.81-1.64h-1.78v-1.61h19.99l.44,8.72h-1.47c-.44-3.01-1.33-4.99-2.39-5.91-1.2-.99-3.21-1.26-6.36-1.26-2.26,0-2.9.1-2.9,1.71v7.83h.48c3.52,0,4.85-1.16,5.16-4.72h1.44v10.87h-1.44c-.31-3.56-1.61-4.68-5.16-4.68h-.48v8.89c0,1.33.41,1.64,1.78,1.64h2.25v1.61h-11.35v-1.61Z"/>
  <path class="st31" d="M469.58,70.91c0,3.25.72,4.34,4.07,4.38v1.47h-9.91v-1.47c3.45-.04,4.1-1.16,4.1-4.38v-15.58c0-1.33-.44-1.64-1.81-1.64h-2.02v-1.61h8.55l6.63,18.87,6.43-18.87h8.34v1.61h-1.81c-1.37,0-1.78.31-1.78,1.64v18.18c0,1.33.41,1.64,1.78,1.64h1.81v1.61h-11.07v-1.61h2.05c1.37,0,1.81-.31,1.81-1.64v-19.24l-7.65,22.49h-1.33l-8.17-22.49v16.64Z"/>
  <path class="st31" d="M496.5,75.15h1.85c1.4,0,1.85-.34,1.85-1.64v-18.18c0-1.3-.44-1.64-1.85-1.64h-1.85v-1.61h11.14v1.61h-1.84c-1.4,0-1.81.34-1.81,1.64v18.18c0,1.3.41,1.64,1.81,1.64h1.84v1.61h-11.14v-1.61Z"/>
  <path class="st31" d="M518.89,57.07l-3.9,9.91h7.96l-4.07-9.91ZM520.53,51.67l8.71,21.77c.55,1.33.96,1.78,2.36,1.78.2,0,.45,0,.68,0v1.55h-10.22v-1.64h1.3c1.44,0,2.09-.1,2.09-.89,0-.27-.1-.68-.31-1.2l-1.57-4.31h-9.19l-1.06,2.67c-.31.79-.48,1.61-.48,2.05,0,1.09.85,1.67,2.5,1.67h.85v1.64h-8.82v-1.61h.27c2.02,0,2.7-.82,3.52-2.91l8.03-20.57h1.33Z"/>
  <path class="st31" d="M537.51,70.91c0,3.25.72,4.34,4.07,4.38v1.47h-9.91v-1.52c3.45-.03,4.1-1.11,4.1-4.32v-15.58c0-1.33-.45-1.64-1.81-1.64h-2.02v-1.61h8.54l6.63,18.87,6.42-18.87h8.34v1.61h-1.81c-1.37,0-1.78.31-1.78,1.64v18.18c0,1.33.41,1.64,1.78,1.64h1.81v1.61h-11.07v-1.61h2.05c1.37,0,1.81-.31,1.81-1.64v-19.24l-7.65,22.49h-1.33l-8.17-22.49v16.64Z"/>
  <path class="st31" d="M564.44,75.15h1.85c1.4,0,1.84-.34,1.84-1.64v-18.18c0-1.3-.44-1.64-1.84-1.64h-1.85v-1.61h11.14v1.61h-1.85c-1.4,0-1.81.34-1.81,1.64v18.18c0,1.3.41,1.64,1.81,1.64h1.85v1.61h-11.14v-1.61Z"/>
  <path class="st114" d="M344.82,14.26l.08,44.01c0,2.82,0,11.4-21.6,11.43h-2.03s-2.03,0-2.03,0c-21.61-.04-21.61-8.61-21.61-11.43l.08-44.01h-29.78l.03,50.62c0,14,39.25,15.09,51.28,15.09h4.04c12.03,0,51.28-1.09,51.28-15.09l.03-50.62h-29.78Z"/>
  <path class="st196" d="M347.12,58.27V16.41h25.27s-.03,46.79-.03,48.47c0,9.19-25.22,12.87-49.06,12.87,0-1.16,0-4,0-5.83,11.93-.02,23.82-2.54,23.82-13.65Z"/>
  <path class="st31" d="M295.42,58.27V16.41h-25.27s.03,46.79.03,48.47c0,9.19,25.22,12.87,49.07,12.87,0-1.16-.01-4-.01-5.83-11.93-.02-23.82-2.54-23.82-13.65Z"/>
  <path class="st196" d="M392.31,93.17h-1.31V0h1.31v93.16Z"/>
  <g>
    <rect class="st2" x="23.11" y="3.43" width="79.72" height="79.72"/>
    <g id="ova">
      <path d="M120.22,61.92l-6.41,15.54h3.15l1.5-3.78h6.91l1.61,3.78h3.17l-6.86-15.54h-3.07ZM119.38,71.39l2.39-6.15,2.62,6.15h-5.02Z"/>
      <path d="M133.99,74.63c-.6-.59-.9-1.38-.9-2.35s.3-1.78.89-2.36,1.36-.87,2.29-.87c.87,0,1.79.28,2.76.85v-2.32c-.98-.47-2.07-.7-3.28-.7-1.63,0-2.96.5-3.99,1.51s-1.54,2.34-1.54,3.99.52,2.87,1.57,3.84,2.42,1.45,4.1,1.45c1.14,0,2.25-.22,3.33-.66v-2.21c-1.16.49-2.11.73-2.85.73-.99,0-1.79-.3-2.39-.89Z"/>
      <path d="M149.62,75.76c-.32,0-.48-.2-.48-.59v-5.08c0-1.02-.35-1.81-1.06-2.37s-1.72-.85-3.06-.85c-1.56,0-2.9.45-4.04,1.35v2.46c.51-.56,1.08-.99,1.7-1.28s1.25-.43,1.88-.43c1.23,0,1.85.51,1.85,1.52v.48l-2.21.65c-1.33.39-2.27.84-2.8,1.36s-.8,1.23-.8,2.12c0,.7.27,1.31.81,1.81s1.18.76,1.93.76c1.05,0,2.1-.37,3.15-1.11.1.42.29.7.55.87s.64.24,1.13.24c.79,0,1.67-.29,2.62-.88v-1.58c-.16.15-.37.28-.61.39s-.43.17-.56.17ZM146.42,75.11c-.6.55-1.2.82-1.8.82-.36,0-.65-.11-.9-.34s-.36-.53-.36-.91c0-.34.1-.63.31-.87s.52-.47.96-.7,1.03-.47,1.8-.73v2.74Z"/>
      <path d="M159.09,67.3c-.82-.29-1.6-.43-2.32-.43-.94,0-1.82.23-2.63.68-.81.46-1.45,1.08-1.91,1.89s-.7,1.69-.7,2.67c0,1.65.5,2.96,1.5,3.91s2.33,1.43,3.99,1.43h4.8v-15.54h-2.72v5.38ZM159.09,75.36h-1.43c-2.22,0-3.33-1.12-3.33-3.35,0-.93.27-1.68.82-2.25s1.27-.86,2.19-.86c.61,0,1.19.14,1.76.43v6.02Z"/>
      <path d="M168.97,66.86c-1.54,0-2.79.5-3.75,1.5s-1.44,2.29-1.44,3.87.52,2.95,1.56,3.94,2.38,1.48,4.01,1.48c1.73,0,3.21-.43,4.43-1.29v-2.04c-.65.46-1.27.8-1.87,1.03s-1.23.34-1.89.34c-1.02,0-1.81-.25-2.4-.75s-.93-1.21-1.04-2.14h7.35v-.41c0-1.73-.44-3.08-1.33-4.06s-2.1-1.47-3.63-1.47ZM166.63,71.15c.11-.79.38-1.39.8-1.8s.97-.61,1.66-.61,1.2.21,1.59.64.62,1.02.69,1.77h-4.74Z"/>
      <path d="M188.94,66.86c-.7,0-1.34.16-1.92.49s-1.17.85-1.75,1.57c-.27-.63-.69-1.13-1.24-1.51s-1.23-.56-2.03-.56c-.67,0-1.26.14-1.77.41s-1.02.69-1.51,1.25v-1.46h-2.74v10.39h2.74v-6.91c.42-.56.82-.97,1.19-1.23s.78-.38,1.22-.38c.55,0,.99.2,1.31.61s.49.96.49,1.67v6.24h2.72v-6.91c.77-1.08,1.58-1.61,2.41-1.61.59,0,1.03.21,1.34.62s.46.98.46,1.7v6.19h2.74v-6.65c0-1.19-.34-2.15-1.01-2.86s-1.56-1.07-2.66-1.07Z"/>
      <polygon points="198.72 72.65 196.27 67.06 193.31 67.06 197.35 75.54 194.04 82.69 196.98 82.69 204.15 67.06 201.22 67.06 198.72 72.65"/>
      <polygon points="121.77 49.11 117.38 39.14 114.21 39.14 121.3 54.88 122.34 54.88 129.2 39.14 126.06 39.14 121.77 49.11"/>
      <rect x="130.55" y="44.29" width="2.74" height="10.39"/>
      <path d="M130.83,42.11c.31.32.67.47,1.08.47s.8-.16,1.1-.47.45-.68.45-1.08-.15-.79-.46-1.09-.67-.46-1.09-.46-.77.15-1.08.45-.47.67-.47,1.1c0,.41.15.77.46,1.08Z"/>
      <path d="M139.98,52.62c-.29.17-.67.25-1.13.25-.91,0-2.04-.37-3.37-1.11v2.28c.42.23.95.43,1.6.59s1.33.24,2.07.24c1.19,0,2.13-.29,2.82-.86s1.05-1.36,1.05-2.36c0-.71-.24-1.32-.72-1.83s-1.31-1.06-2.5-1.66c-.83-.42-1.34-.7-1.52-.86s-.28-.31-.28-.47c0-.27.11-.49.33-.63s.53-.22.92-.22c.47,0,1,.1,1.59.31s1.15.47,1.67.81v-2.19c-.56-.28-1.1-.49-1.6-.62s-1.04-.19-1.61-.19c-1.17,0-2.12.27-2.84.82s-1.08,1.28-1.08,2.2c0,.65.2,1.2.6,1.67s1.02.91,1.86,1.31c1.09.53,1.74.87,1.95,1.01s.36.28.47.41.16.28.16.44c0,.27-.14.49-.43.66Z"/>
      <path d="M151.75,54.68h2.74v-10.39h-2.74v6.88c-.26.51-.6.91-1.02,1.19s-.86.42-1.32.42c-.56,0-1-.18-1.34-.53s-.51-.87-.51-1.54v-6.43h-2.72v6.65c0,1.17.34,2.12,1.02,2.85s1.58,1.09,2.69,1.09,2.22-.54,3.2-1.61v1.41Z"/>
      <path d="M166.65,54v-1.58c-.16.15-.37.28-.61.39s-.43.17-.56.17c-.32,0-.48-.2-.48-.59v-5.08c0-1.02-.35-1.81-1.06-2.37s-1.72-.85-3.06-.85c-1.56,0-2.9.45-4.04,1.35v2.46c.51-.56,1.08-.99,1.7-1.28s1.25-.43,1.88-.43c1.23,0,1.85.51,1.85,1.52v.48l-2.21.65c-1.33.39-2.27.84-2.8,1.36s-.8,1.23-.8,2.12c0,.7.27,1.31.81,1.81s1.18.76,1.93.76c1.05,0,2.1-.37,3.15-1.11.1.42.29.7.55.87s.64.24,1.13.24c.79,0,1.67-.29,2.62-.88ZM162.28,52.33c-.6.55-1.2.82-1.8.82-.36,0-.65-.11-.9-.34s-.36-.53-.36-.91c0-.34.1-.63.31-.87s.52-.47.96-.7,1.03-.47,1.8-.73v2.74Z"/>
      <rect x="168.09" y="39.14" width="2.74" height="15.54"/>
      <rect x="173.44" y="44.29" width="2.74" height="10.39"/>
      <path d="M174.8,42.59c.43,0,.8-.16,1.1-.47s.45-.68.45-1.08-.15-.79-.46-1.09-.67-.46-1.09-.46-.77.15-1.08.45-.47.67-.47,1.1c0,.41.15.77.46,1.08s.67.47,1.08.47Z"/>
      <polygon points="187.63 54.68 187.63 52.63 182.2 52.63 187.61 44.29 178.07 44.29 178.07 46.36 183.07 46.36 177.66 54.68 187.63 54.68"/>
      <path d="M192.42,48.83c-1.33.39-2.27.84-2.8,1.36s-.8,1.23-.8,2.12c0,.7.27,1.31.81,1.81s1.18.76,1.93.76c1.05,0,2.1-.37,3.15-1.11.1.42.29.7.55.87s.64.24,1.13.24c.79,0,1.67-.29,2.62-.88v-1.58c-.16.15-.37.28-.61.39s-.43.17-.56.17c-.32,0-.48-.2-.48-.59v-5.08c0-1.02-.35-1.81-1.06-2.37s-1.72-.85-3.06-.85c-1.56,0-2.9.45-4.04,1.35v2.46c.51-.56,1.08-.99,1.7-1.28s1.25-.43,1.88-.43c1.23,0,1.85.51,1.85,1.52v.48l-2.21.65ZM194.63,52.33c-.6.55-1.2.82-1.8.82-.36,0-.65-.11-.9-.34s-.36-.53-.36-.91c0-.34.1-.63.31-.87s.52-.47.96-.7,1.03-.47,1.8-.73v2.74Z"/>
      <path d="M203.63,52.28c-.28-.29-.42-.67-.42-1.13v-4.79h3.56v-2.07h-3.56v-2.76h-.22l-4.13,4.38v.44h1.62v4.97c0,1.09.33,1.95.98,2.59s1.57.96,2.74.96c.87,0,1.79-.22,2.78-.66v-2.19c-.83.46-1.56.69-2.2.69-.49,0-.87-.14-1.16-.43Z"/>
      <path d="M209.9,39.48c-.41,0-.77.15-1.08.45s-.47.67-.47,1.1c0,.41.15.77.46,1.08s.67.47,1.08.47.8-.16,1.1-.47.45-.68.45-1.08-.15-.79-.46-1.09-.67-.46-1.09-.46Z"/>
      <rect x="208.54" y="44.29" width="2.74" height="10.39"/>
      <path d="M221.85,44.77c-.88-.45-1.86-.68-2.95-.68s-2.04.22-2.91.67-1.56,1.08-2.05,1.89-.73,1.74-.73,2.79.23,2.02.7,2.82,1.14,1.45,2.03,1.91,1.88.7,2.97.7,2.07-.23,2.98-.7,1.58-1.1,2.05-1.91.7-1.75.7-2.82-.24-1.95-.72-2.77-1.16-1.45-2.05-1.9ZM220.99,51.96c-.51.59-1.21.89-2.1.89s-1.53-.31-2.04-.93-.76-1.45-.76-2.49.26-1.81.78-2.41,1.19-.91,2.02-.91c.88,0,1.58.29,2.1.86s.77,1.39.77,2.44c0,1.1-.26,1.95-.77,2.55Z"/>
      <path d="M235.24,45.18c-.66-.73-1.55-1.1-2.66-1.1-.62,0-1.2.13-1.73.38s-1.05.68-1.55,1.27v-1.46h-2.74v10.39h2.74v-6.91c.44-.58.85-.99,1.22-1.24s.77-.37,1.19-.37c.56,0,1,.2,1.32.59s.48.93.48,1.6v6.33h2.72v-6.61c0-1.19-.33-2.16-1-2.89Z"/>
      <path d="M117.44,31.05c1.32.7,2.78,1.05,4.39,1.05s3.1-.34,4.4-1.03,2.32-1.65,3.07-2.89,1.12-2.59,1.12-4.04-.38-2.86-1.15-4.11-1.79-2.21-3.08-2.87-2.73-1-4.34-1-3.16.35-4.45,1.04-2.3,1.67-3.04,2.92-1.1,2.59-1.1,4.01.37,2.82,1.1,4.04,1.76,2.18,3.08,2.87ZM117.04,21.35c.45-.82,1.1-1.46,1.94-1.91s1.79-.68,2.84-.68,2,.23,2.84.68,1.49,1.09,1.96,1.92.7,1.76.7,2.79c0,1.58-.51,2.87-1.54,3.87s-2.34,1.5-3.93,1.5c-1.05,0-2-.23-2.83-.68s-1.48-1.09-1.95-1.91-.7-1.75-.7-2.78.23-1.97.68-2.79Z"/>
      <path d="M135.05,31.49c.82.41,1.63.61,2.44.61.99,0,1.88-.23,2.67-.69s1.39-1.1,1.82-1.92.64-1.76.64-2.8c0-1.59-.45-2.89-1.36-3.88s-2.1-1.49-3.59-1.49c-.93,0-1.81.29-2.64.87v-.67h-2.71v15.63h2.74v-5.65ZM135.05,24.22c.48-.35.87-.58,1.17-.68s.6-.16.92-.16c.85,0,1.51.3,1.97.9s.7,1.43.7,2.49c0,.97-.26,1.76-.78,2.38s-1.21.92-2.07.92c-.59,0-1.23-.2-1.91-.59v-5.26Z"/>
      <path d="M149.64,32.1c1.73,0,3.21-.43,4.43-1.29v-2.04c-.65.46-1.27.8-1.87,1.03s-1.23.34-1.89.34c-1.02,0-1.81-.25-2.4-.75s-.93-1.21-1.04-2.14h7.35v-.41c0-1.73-.44-3.08-1.33-4.06s-2.1-1.47-3.63-1.47-2.79.5-3.75,1.5-1.44,2.29-1.44,3.87.52,2.95,1.56,3.94,2.38,1.48,4.01,1.48ZM147.71,23.79c.42-.41.97-.61,1.66-.61s1.2.21,1.59.64.62,1.02.69,1.77h-4.74c.11-.79.38-1.39.8-1.8Z"/>
      <path d="M159,24.99c.44-.58.85-.99,1.22-1.24s.77-.37,1.19-.37c.56,0,1,.2,1.32.59s.48.93.48,1.6v6.33h2.72v-6.61c0-1.19-.33-2.16-1-2.89s-1.55-1.1-2.66-1.1c-.62,0-1.2.13-1.73.38s-1.05.68-1.55,1.27v-1.46h-2.74v10.39h2.74v-6.91Z"/>
    </g>
    <g id="symbol">
      <path class="st103" d="M36.4,69.86L102.83,16.71"/>
      <path class="st163" d="M36.35,69.76L102.78,16.97"/>
      <path class="st71" d="M36.3,69.65L102.73,17.23"/>
      <path class="st141" d="M36.24,69.55L102.68,17.49"/>
      <path class="st151" d="M36.19,69.44L102.62,17.75"/>
      <path class="st148" d="M36.14,69.34L102.57,18.01"/>
      <path class="st148" d="M36.09,69.24L102.52,18.27"/>
      <path class="st108" d="M36.04,69.13L102.47,18.53"/>
      <path class="st49" d="M35.98,69.03L102.42,18.79"/>
      <path class="st101" d="M35.93,68.93L102.37,19.05"/>
      <path class="st176" d="M35.88,68.82L102.31,19.31"/>
      <path class="st176" d="M35.83,68.72L102.26,19.57"/>
      <path class="st238" d="M35.78,68.61L102.21,19.83"/>
      <path class="st174" d="M35.72,68.51L102.16,20.09"/>
      <path class="st174" d="M35.67,68.41L102.11,20.35"/>
      <path class="st173" d="M35.62,68.3L102.05,20.61"/>
      <path class="st118" d="M35.57,68.2L102,20.87"/>
      <path class="st118" d="M35.52,68.1L101.95,21.12"/>
      <path class="st188" d="M35.46,67.99L101.9,21.38"/>
      <path class="st30" d="M35.41,67.89L101.85,21.64"/>
      <path class="st127" d="M35.36,67.78L101.79,21.9"/>
      <path class="st89" d="M35.31,67.68L101.74,22.16"/>
      <path class="st230" d="M35.26,67.58L101.69,22.42"/>
      <path class="st206" d="M35.21,67.47L101.64,22.68"/>
      <path class="st206" d="M35.15,67.37L101.59,22.94"/>
      <path class="st119" d="M35.1,67.26L101.53,23.2"/>
      <path class="st46" d="M35.05,67.16L101.48,23.46"/>
      <path class="st120" d="M35,67.06L101.43,23.72"/>
      <path class="st203" d="M34.95,66.95L101.38,23.98"/>
      <path class="st50" d="M34.89,66.85L101.33,24.24"/>
      <path class="st57" d="M34.84,66.75L101.28,24.5"/>
      <path class="st227" d="M34.79,66.64L101.22,24.76"/>
      <path class="st217" d="M34.74,66.54L101.17,25.02"/>
      <path class="st217" d="M34.69,66.43L101.12,25.28"/>
      <path class="st159" d="M34.63,66.33L101.07,25.54"/>
      <path class="st155" d="M34.58,66.23L101.02,25.8"/>
      <path class="st67" d="M34.53,66.12L100.96,26.06"/>
      <path class="st18" d="M34.48,66.02L100.91,26.31"/>
      <path class="st73" d="M34.43,65.92L100.86,26.57"/>
      <path class="st83" d="M34.37,65.81L100.81,26.83"/>
      <path class="st145" d="M34.32,65.71L100.76,27.09"/>
      <path class="st229" d="M34.27,65.6L100.7,27.35"/>
      <path class="st222" d="M34.22,65.5L100.65,27.61"/>
      <path class="st90" d="M34.17,65.4L100.6,27.87"/>
      <path class="st202" d="M34.12,65.29L100.55,28.13"/>
      <path class="st198" d="M34.06,65.19L100.5,28.39"/>
      <path class="st111" d="M34.01,65.09L100.45,28.65"/>
      <path class="st211" d="M33.96,64.98L100.39,28.91"/>
      <path class="st74" d="M33.91,64.88L100.34,29.17"/>
      <path class="st191" d="M33.86,64.77L100.29,29.43"/>
      <path class="st21" d="M33.8,64.67L100.24,29.69"/>
      <path class="st224" d="M33.75,64.57L100.19,29.95"/>
      <path class="st185" d="M33.7,64.46L100.13,30.21"/>
      <path class="st53" d="M33.65,64.36L100.08,30.47"/>
      <path class="st95" d="M33.6,64.25L100.03,30.73"/>
      <path class="st75" d="M33.54,64.15L99.98,30.99"/>
      <path class="st75" d="M33.49,64.05L99.93,31.25"/>
      <path class="st0" d="M33.44,63.94L99.87,31.5"/>
      <path class="st170" d="M33.39,63.84L99.82,31.76"/>
      <path class="st187" d="M33.34,63.74l66.43-31.71"/>
      <path class="st84" d="M33.28,63.63l66.43-31.35"/>
      <path class="st149" d="M33.23,63.53l66.43-30.99"/>
      <path class="st34" d="M33.18,63.42l66.43-30.62"/>
      <path class="st167" d="M33.13,63.32l66.43-30.26"/>
      <path class="st166" d="M33.08,63.22l66.43-29.9"/>
      <path class="st96" d="M33.03,63.11l66.43-29.53"/>
      <path class="st20" d="M32.97,63.01l66.43-29.17"/>
      <path class="st175" d="M32.92,62.91l66.43-28.81"/>
      <path class="st26" d="M32.87,62.8l66.43-28.44"/>
      <path class="st44" d="M32.82,62.7l66.43-28.08"/>
      <path class="st81" d="M32.77,62.59l66.43-27.72"/>
      <path class="st146" d="M32.71,62.49l66.43-27.35"/>
      <path class="st213" d="M32.66,62.39l66.43-26.99"/>
      <path class="st135" d="M32.61,62.28l66.43-26.63"/>
      <path class="st113" d="M32.56,62.18l66.43-26.26"/>
      <path class="st1" d="M32.51,62.07l66.43-25.9"/>
      <path class="st12" d="M32.45,61.97l66.43-25.54"/>
      <path class="st216" d="M32.4,61.87l66.43-25.17"/>
      <path class="st97" d="M32.35,61.76l66.43-24.81"/>
      <path class="st164" d="M32.3,61.66l66.43-24.45"/>
      <path class="st165" d="M32.25,61.56l66.43-24.08"/>
      <path class="st72" d="M32.19,61.45l66.43-23.72"/>
      <path class="st76" d="M32.14,61.35l66.43-23.36"/>
      <path class="st8" d="M32.09,61.24l66.43-22.99"/>
      <path class="st132" d="M32.04,61.14l66.43-22.63"/>
      <path class="st56" d="M31.99,61.04l66.43-22.27"/>
      <path class="st13" d="M31.94,60.93l66.43-21.9"/>
      <path class="st124" d="M31.88,60.83l66.43-21.54"/>
      <path class="st59" d="M31.83,60.73l66.43-21.18"/>
      <path class="st168" d="M31.78,60.62l66.43-20.81"/>
      <path class="st210" d="M31.73,60.52l66.43-20.45"/>
      <path class="st77" d="M31.68,60.41l66.43-20.09"/>
      <path class="st226" d="M31.62,60.31l66.43-19.72"/>
      <path class="st38" d="M31.57,60.21l66.43-19.36"/>
      <path class="st235" d="M31.52,60.1l66.43-19"/>
      <path class="st237" d="M31.47,60l66.43-18.63"/>
      <path class="st35" d="M31.42,59.89l66.43-18.27"/>
      <path class="st125" d="M31.36,59.79l66.43-17.91"/>
      <path class="st232" d="M31.31,59.69l66.43-17.54"/>
      <path class="st193" d="M31.26,59.58l66.43-17.18"/>
      <path class="st93" d="M31.21,59.48l66.43-16.82"/>
      <path class="st39" d="M31.16,59.38l66.43-16.45"/>
      <path class="st179" d="M31.11,59.27l66.43-16.09"/>
      <path class="st192" d="M31.05,59.17l66.43-15.73"/>
      <path class="st139" d="M31,59.06l66.43-15.36"/>
      <path class="st195" d="M30.95,58.96l66.43-15"/>
      <path class="st24" d="M30.9,58.86l66.43-14.64"/>
      <path class="st17" d="M30.85,58.75l66.43-14.27"/>
      <path class="st219" d="M30.79,58.65l66.43-13.91"/>
      <path class="st200" d="M30.74,58.55l66.43-13.55"/>
      <path class="st68" d="M30.69,58.44l66.43-13.18"/>
      <path class="st11" d="M30.64,58.34l66.43-12.82"/>
      <path class="st131" d="M30.59,58.23l66.43-12.46"/>
      <path class="st201" d="M30.53,58.13l66.43-12.09"/>
      <path class="st48" d="M30.48,58.03l66.43-11.73"/>
      <path class="st51" d="M30.43,57.92l66.43-11.37"/>
      <path class="st169" d="M30.38,57.82l66.43-11"/>
      <path class="st14" d="M30.33,57.72l66.43-10.64"/>
      <path class="st218" d="M30.27,57.61l66.43-10.28"/>
      <path class="st143" d="M30.22,57.51l66.43-9.91"/>
      <path class="st85" d="M30.17,57.4l66.43-9.55"/>
      <path class="st189" d="M30.12,57.3l66.43-9.19"/>
      <path class="st162" d="M30.07,57.2l66.43-8.82"/>
      <path class="st99" d="M30.02,57.09l66.43-8.46"/>
      <path class="st209" d="M29.96,56.99l66.43-8.1"/>
      <path class="st107" d="M29.91,56.88l66.43-7.73"/>
      <path class="st129" d="M29.86,56.78l66.43-7.37"/>
      <path class="st157" d="M29.81,56.68l66.43-7.01"/>
      <path class="st98" d="M29.76,56.57l66.43-6.64"/>
      <path class="st221" d="M29.7,56.47l66.43-6.28"/>
      <path class="st69" d="M29.65,56.37l66.43-5.92"/>
      <path class="st100" d="M29.6,56.26l66.43-5.55"/>
      <path class="st47" d="M29.55,56.16l66.43-5.19"/>
      <path class="st52" d="M29.5,56.05l66.43-4.83"/>
      <path class="st58" d="M29.44,55.95l66.43-4.46"/>
      <path class="st130" d="M29.39,55.85l66.43-4.1"/>
      <path class="st128" d="M29.34,55.74l66.43-3.74"/>
      <path class="st172" d="M29.29,55.64l66.43-3.37"/>
      <path class="st91" d="M29.24,55.54l66.43-3.01"/>
      <path class="st91" d="M29.18,55.43l66.43-2.65"/>
      <path class="st212" d="M29.13,55.33l66.43-2.28"/>
      <path class="st25" d="M29.08,55.22l66.43-1.92"/>
      <path class="st61" d="M29.03,55.12l66.43-1.56"/>
      <path class="st152" d="M28.98,55.02l66.43-1.19"/>
      <path class="st109" d="M28.93,54.91l66.43-.83"/>
      <path class="st109" d="M28.87,54.81l66.43-.47"/>
      <path class="st220" d="M28.82,54.7l66.43-.1"/>
      <path class="st156" d="M28.77,54.6l66.43.26"/>
      <path class="st45" d="M28.72,54.5l66.43.62"/>
      <path class="st27" d="M28.67,54.39l66.43.99"/>
      <path class="st233" d="M28.61,54.29l66.43,1.35"/>
      <path class="st28" d="M28.56,54.19l66.43,1.71"/>
      <path class="st41" d="M28.51,54.08l66.43,2.08"/>
      <path class="st117" d="M28.46,53.98l66.43,2.44"/>
      <path class="st117" d="M28.41,53.87l66.43,2.8"/>
      <path class="st214" d="M28.35,53.77l66.43,3.17"/>
      <path class="st236" d="M28.3,53.67l66.43,3.53"/>
      <path class="st37" d="M28.25,53.56l66.43,3.89"/>
      <path class="st184" d="M28.2,53.46l66.43,4.26"/>
      <path class="st184" d="M28.15,53.36l66.43,4.62"/>
      <path class="st123" d="M28.09,53.25l66.43,4.98"/>
      <path class="st112" d="M28.04,53.15l66.43,5.35"/>
      <path class="st112" d="M27.99,53.04l66.43,5.71"/>
      <path class="st150" d="M27.94,52.94l66.43,6.07"/>
      <path class="st54" d="M27.89,52.84l66.43,6.44"/>
      <path class="st178" d="M27.84,52.73l66.43,6.8"/>
      <path class="st178" d="M27.78,52.63l66.43,7.16"/>
      <path class="st82" d="M27.73,52.52l66.43,7.53"/>
      <path class="st15" d="M27.68,52.42l66.43,7.89"/>
      <path class="st19" d="M27.63,52.32l66.43,8.25"/>
      <path class="st177" d="M27.58,52.21l66.43,8.62"/>
      <path class="st208" d="M27.52,52.11l66.43,8.98"/>
      <path class="st6" d="M27.47,52.01l66.43,9.34"/>
      <path class="st6" d="M27.42,51.9l66.43,9.71"/>
      <path class="st171" d="M27.37,51.8l66.43,10.07"/>
      <path class="st22" d="M27.32,51.69l66.43,10.43"/>
      <path class="st133" d="M27.26,51.59l66.43,10.8"/>
      <path class="st133" d="M27.21,51.49l66.43,11.16"/>
      <path class="st102" d="M27.16,51.38l66.43,11.52"/>
      <path class="st140" d="M27.11,51.28l66.43,11.89"/>
      <path class="st144" d="M27.06,51.18l66.43,12.25"/>
      <path class="st228" d="M27,51.07l66.43,12.61"/>
      <path class="st186" d="M26.95,50.97l66.43,12.98"/>
      <path class="st62" d="M26.9,50.86l66.43,13.34"/>
      <path class="st32" d="M26.85,50.76l66.43,13.7"/>
      <path class="st197" d="M26.8,50.66l66.43,14.07"/>
      <path class="st154" d="M26.75,50.55l66.43,14.43"/>
      <path class="st158" d="M26.69,50.45l66.43,14.79"/>
      <path class="st86" d="M26.64,50.35l66.43,15.16"/>
      <path class="st234" d="M26.59,50.24l66.43,15.52"/>
      <path class="st105" d="M26.54,50.14l66.43,15.88"/>
      <path class="st92" d="M26.49,50.03l66.43,16.25"/>
      <path class="st40" d="M26.43,49.93l66.43,16.61"/>
      <path class="st183" d="M26.38,49.83l66.43,16.97"/>
      <path class="st122" d="M26.33,49.72l66.43,17.34"/>
      <path class="st5" d="M26.28,49.62l66.43,17.7"/>
      <path class="st60" d="M26.23,49.51l66.43,18.06"/>
      <path class="st70" d="M26.17,49.41l66.43,18.42"/>
      <path class="st121" d="M26.12,49.31l66.43,18.79"/>
      <path class="st16" d="M26.07,49.2l66.43,19.15"/>
      <path class="st138" d="M26.02,49.1l66.43,19.51"/>
      <path class="st134" d="M25.97,49l66.43,19.88"/>
      <path class="st79" d="M25.91,48.89l66.43,20.24"/>
      <path class="st194" d="M25.86,48.79l66.43,20.6"/>
      <path class="st43" d="M25.81,48.68l66.43,20.97"/>
      <path class="st136" d="M25.76,48.58l66.43,21.33"/>
      <path class="st182" d="M25.71,48.48l66.43,21.69"/>
      <path class="st205" d="M25.66,48.37l66.43,22.06"/>
      <path class="st23" d="M25.6,48.27l66.43,22.42"/>
      <path class="st142" d="M25.55,48.17l66.43,22.78"/>
      <path class="st199" d="M25.5,48.06l66.43,23.15"/>
      <path class="st3" d="M25.45,47.96l66.43,23.51"/>
      <path class="st63" d="M25.4,47.85l66.43,23.87"/>
      <path class="st207" d="M25.34,47.75l66.43,24.24"/>
      <path class="st4" d="M25.29,47.65l66.43,24.6"/>
      <path class="st55" d="M25.24,47.54l66.43,24.96"/>
      <path class="st55" d="M25.19,47.44l66.43,25.33"/>
      <path class="st147" d="M25.14,47.33l66.43,25.69"/>
      <path class="st87" d="M25.08,47.23l66.43,26.05"/>
      <path class="st10" d="M25.03,47.13l66.43,26.42"/>
      <path class="st29" d="M24.98,47.02l66.43,26.78"/>
      <path class="st126" d="M24.93,46.92l66.43,27.14"/>
      <path class="st181" d="M24.88,46.82l66.43,27.51"/>
      <path class="st7" d="M24.82,46.71l66.43,27.87"/>
      <path class="st231" d="M24.77,46.61l66.43,28.23"/>
      <path class="st231" d="M24.72,46.5l66.43,28.6"/>
      <path class="st9" d="M24.67,46.4l66.43,28.96"/>
      <path class="st225" d="M24.62,46.3l66.43,29.32"/>
      <path class="st88" d="M24.57,46.19l66.43,29.69"/>
      <path class="st116" d="M24.51,46.09l66.43,30.05"/>
      <path class="st116" d="M24.46,45.99l66.43,30.41"/>
      <path class="st106" d="M24.41,45.88l66.43,30.78"/>
      <path class="st65" d="M24.36,45.78l66.43,31.14"/>
      <path class="st36" d="M24.31,45.67l66.43,31.5"/>
      <path class="st36" d="M24.25,45.57l66.43,31.87"/>
      <path class="st42" d="M24.2,45.47l66.43,32.23"/>
      <path class="st78" d="M24.15,45.36l66.43,32.59"/>
      <path class="st33" d="M24.1,45.26l66.43,32.96"/>
      <path class="st204" d="M24.05,45.15l66.43,33.32"/>
      <path class="st204" d="M23.99,45.05l66.43,33.68"/>
      <path class="st190" d="M23.94,44.95l66.43,34.05"/>
      <path class="st223" d="M23.89,44.84l66.43,34.41"/>
      <path class="st137" d="M23.84,44.74l66.43,34.77"/>
      <path class="st160" d="M23.79,44.64l66.43,35.14"/>
      <path class="st64" d="M23.74,44.53l66.43,35.5"/>
      <path class="st115" d="M23.68,44.43l66.43,35.86"/>
      <path class="st66" d="M23.63,44.32l66.43,36.23"/>
      <path class="st80" d="M23.58,44.22l66.43,36.59"/>
      <path class="st153" d="M23.53,44.12l66.43,36.95"/>
      <path class="st153" d="M23.48,44.01l66.43,37.32"/>
      <path class="st180" d="M23.42,43.91l66.43,37.68"/>
      <path class="st110" d="M23.37,43.81l66.43,38.04"/>
      <path class="st94" d="M23.32,43.7l66.43,38.41"/>
      <path class="st94" d="M23.27,43.6l66.43,38.77"/>
      <path class="st215" d="M23.22,43.49l66.43,39.13"/>
      <path class="st104" d="M23.16,43.39l66.43,39.5"/>
      <path class="st161" d="M23.11,43.29l66.43,39.86"/>
    </g>
  </g>
</svg>