<svg  viewBox="0 0 485 79" fill="none" xmlns="http://www.w3.org/2000/svg">
<g clip-path="url(#clip0_183_318)">
<mask id="mask0_183_318" style="mask-type:alpha" maskUnits="userSpaceOnUse" x="3" y="-1" width="471" height="82">
<path d="M101.605 -0.999969L474 1.44051L439.463 34.1429L394.916 52.2024L390.912 79.0476L3 81L101.605 -0.999969Z" fill="#D9D9D9"/>
</mask>
<g mask="url(#mask0_183_318)">
<rect y="3.05176e-05" width="485" height="79" fill="url(#paint0_linear_183_318)"/>
</g>
<path d="M159.357 27.6467L193.567 -31.8489L267.193 -15.4876L267.193 52.1521L201.748 81.1928L159.357 27.6467Z" stroke="white" stroke-width="2"/>
<path d="M267 52L324.5 65.5L359 12.5L304 -28.5" stroke="white" stroke-width="2"/>
<line x1="159.87" y1="26.4926" x2="129.87" y2="79.4926" stroke="white" stroke-width="2"/>
<line x1="159.488" y1="27.8589" x2="102.488" y2="-6.14115" stroke="white" stroke-width="2"/>
<line x1="324.984" y1="65.1789" x2="320.984" y2="87.1789" stroke="white" stroke-width="2"/>
<path d="M107.349 -5.64245L57.9998 36.3575L97.9999 79.5" stroke="white" stroke-width="2"/>
<path d="M57.835 36.5504L-2 85.5" stroke="white" stroke-width="2"/>
<line x1="358.751" y1="11.3402" x2="394.751" y2="52.3402" stroke="white" stroke-width="2"/>
<line x1="393.618" y1="52.0758" x2="439.618" y2="33.0758" stroke="white" stroke-width="2"/>
<line x1="439.019" y1="34.1961" x2="432.019" y2="-0.803852" stroke="white" stroke-width="2"/>
<path d="M439.303 33.2827L475 0.500001" stroke="white" stroke-width="2"/>
<line x1="393.991" y1="51.1322" x2="389.991" y2="81.1322" stroke="white" stroke-width="2"/>
<line x1="359.211" y1="12.3861" x2="373.211" y2="-5.61391" stroke="white" stroke-width="2"/>
</g>
<defs>
<linearGradient id="paint0_linear_183_318" x1="0" y1="39.5" x2="485" y2="39.5" gradientUnits="userSpaceOnUse">
<stop stop-color="#FFE6B8"/>
<stop offset="1" stop-color="#F59DAD"/>
</linearGradient>
<clipPath id="clip0_183_318">
<rect width="485" height="79" fill="white"/>
</clipPath>
</defs>
</svg>
