<svg viewBox="0 0 485 79" fill="none" xmlns="http://www.w3.org/2000/svg">
<g clip-path="url(#clip0_183_425)">
<mask id="mask0_183_425" style="mask-type:alpha" maskUnits="userSpaceOnUse" x="91" y="-2" width="313" height="82">
<path d="M381 80L115.5 80L125.5 66.5L91 27.5L112 -0.999974L327.5 -1.49999L347.5 15L379.5 17L404 37.5L381 80Z" fill="#D9D9D9"/>
</mask>
<g mask="url(#mask0_183_425)">
<rect x="409" y="79" width="362" height="79" transform="rotate(180 409 79)" fill="url(#paint0_linear_183_425)"/>
</g>
<path d="M307 53.5L291.433 110.849L232 92.5L217.807 26.8479L275 18.5L307 53.5Z" stroke="white" stroke-width="2"/>
<path d="M218 27L160.5 13.5L126 66.5L181 107.5" stroke="white" stroke-width="2"/>
<path d="M334.012 52.4421L348 14" stroke="white" stroke-width="2"/>
<line y1="-1" x2="58.8218" y2="-1" transform="matrix(0.816025 0.578017 -0.448863 0.893601 334 52)" stroke="white" stroke-width="2"/>
<path d="M161.016 12.8212L161.016 -9.99997" stroke="white" stroke-width="2"/>
<path d="M377.651 84.6424L404 38L379.5 17" stroke="white" stroke-width="2"/>
<line x1="126.249" y1="67.6598" x2="90.2486" y2="26.6598" stroke="white" stroke-width="2"/>
<path d="M91.0088 27.8678L112.5 -1.99997" stroke="white" stroke-width="2"/>
<line x1="125.789" y1="66.6139" x2="111.789" y2="84.6139" stroke="white" stroke-width="2"/>
<line x1="335.069" y1="51.9976" x2="306.069" y2="53.9976" stroke="white" stroke-width="2"/>
<line x1="379.938" y1="16.9981" x2="347.938" y2="14.9981" stroke="white" stroke-width="2"/>
<line x1="347.38" y1="14.7849" x2="328.38" y2="-0.215116" stroke="white" stroke-width="2"/>
<line x1="274" y1="18" x2="274" y2="-5.99997" stroke="white" stroke-width="2"/>
<line x1="218" y1="27" x2="218" y2="-2.99997" stroke="white" stroke-width="2"/>
</g>
<defs>
<linearGradient id="paint0_linear_183_425" x1="409" y1="118.5" x2="771" y2="118.5" gradientUnits="userSpaceOnUse">
<stop stop-color="#FFE6B8"/>
<stop offset="1" stop-color="#F8A072"/>
</linearGradient>
<clipPath id="clip0_183_425">
<rect width="485" height="79" fill="white" transform="translate(485 79) rotate(180)"/>
</clipPath>
</defs>
</svg>
