<svg width="430" height="195" viewBox="0 0 430 195" fill="none" xmlns="http://www.w3.org/2000/svg">
<g clip-path="url(#clip0_207_69)">
<g opacity="0.68">
<path d="M306.926 370.461L222.742 364.722L91.2458 291.809L69.4233 297.226L-7.73762 265.559L2.07794 197.069L73.5003 144.807L98.0003 119.546L132.531 117.985L182.989 85.775L228.5 57.307L276.812 63.3614L288.5 31.807L325.5 24.307L354.031 13.807L374 28.307L404.762 28.307L432.619 13.807L439.5 58.9428L432.619 79.6422L473.375 97.7103L470.776 141.3L488.354 171.945L474.358 198.821L483.344 254.695L471.388 322.265L402.254 340.259L418.397 381.096L368.057 410.405L306.926 370.461Z" fill="url(#paint0_linear_207_69)"/>
<path d="M258.65 230.004L197.356 272.824M258.65 230.004L347.656 287.69M258.65 230.004L254.34 172.415M197.356 272.824L222.742 364.722M197.356 272.824L137.162 222.91M222.742 364.722L306.926 370.461M222.742 364.722L91.2458 291.809M306.926 370.461L347.656 287.69M306.926 370.461L368.057 410.405L418.397 381.096L402.254 340.259M347.656 287.69L395.24 236.543M347.656 287.69L402.254 340.259M254.34 172.415L364.313 168.031M254.34 172.415L161.67 163.193M254.34 172.415L231.848 119.546M364.313 168.031L395.24 236.543M364.313 168.031L400.348 159.3M364.313 168.031L354.031 137.025M395.24 236.543L483.344 254.695M402.254 340.259L471.388 322.265L483.344 254.695M483.344 254.695L474.358 198.821M161.67 163.193L137.162 222.91M161.67 163.193L132.531 117.985M137.162 222.91L100.479 194.191M400.348 159.3L474.358 198.821M400.348 159.3L354.031 137.025M400.348 159.3L423.937 140.065M474.358 198.821L488.354 171.945L470.776 141.3M354.031 137.025L261.472 95.1186M354.031 137.025L354.904 102.059M261.472 95.1186L231.848 119.546M261.472 95.1186L276.812 63.3614M231.848 119.546L182.989 85.775M100.479 194.191L91.2458 291.809M100.479 194.191L73.5003 144.807M91.2458 291.809L69.4233 297.226L-7.73762 265.559L2.07794 197.069L73.5003 144.807M132.531 117.985L182.989 85.775M132.531 117.985L98.0003 119.546L73.5003 144.807M182.989 85.775L228.5 57.307L276.812 63.3614M354.904 102.059L401.066 95.2584M354.904 102.059L341.76 78.7993M401.066 95.2584L423.937 140.065M401.066 95.2584L432.619 79.6422M401.066 95.2584L404.762 69.5336M423.937 140.065L470.776 141.3M470.776 141.3L473.375 97.7103L432.619 79.6422M432.619 79.6422L439.5 58.9428M341.76 78.7993L366.105 52.9884M341.76 78.7993L276.812 63.3614M341.76 78.7993L347.656 52.9884M276.812 63.3614L288.5 31.807L325.5 24.307M366.105 52.9884L404.762 69.5336M366.105 52.9884L347.656 52.9884M366.105 52.9884L374 28.307M404.762 69.5336L418.397 49.307M325.5 24.307L347.656 52.9884M325.5 24.307L354.031 13.807L374 28.307M374 28.307L404.762 28.307M418.397 49.307L439.5 58.9428M418.397 49.307L404.762 28.307M439.5 58.9428L432.619 13.807L404.762 28.307" stroke="white" stroke-width="2"/>
</g>
</g>
<defs>
<linearGradient id="paint0_linear_207_69" x1="275" y1="64.807" x2="310" y2="260.807" gradientUnits="userSpaceOnUse">
<stop stop-color="#FFD485"/>
<stop offset="1" stop-color="#F89F72"/>
</linearGradient>
<clipPath id="clip0_207_69">
<rect width="430" height="195" fill="white"/>
</clipPath>
</defs>
</svg>
