<svg xmlns="http://www.w3.org/2000/svg" viewBox="0 0 400 400">
  <circle cx="200" cy="200" r="180" fill="#fff" />
  <path fill="#ee88b3" d="m207.9 75-65.6 64.3c-1.7-5.4-5.9-9.6-11.2-11.4l66.1-64.7c1.5 5.5 5.5 9.8 10.8 11.9Z" />
  <path fill="#a8bdf0" d="M313.4 108.8v.8l-86.7-38.2c3.5-3.3 5.8-8 5.8-13.2v-1.7L319.9 95c-3.9 3.3-6.4 8.3-6.4 13.8Z" />
  <path fill="#f89f72"
    d="m335.8 126.3-18.2 83.4c-3.1-2.5-7-3.9-11.3-3.9s-3 .2-4.4.5l18.2-83.4c3.1 2.5 7 3.9 11.3 3.9s3-.2 4.4-.5Z" />
  <path fill="#4c4c4c"
    d="M115 144.9c0-5.6 4.5-10.1 10.1-10.1s10.1 4.5 10.1 10.1-4.5 10.1-10.1 10.1-10.1-4.5-10.1-10.1Zm206.3-36c0-5.6 4.5-10.1 10.1-10.1s10.1 4.5 10.1 10.1S337 119 331.4 119s-10.1-4.5-10.1-10.1Zm-117-50.7c0-5.6 4.5-10.1 10.1-10.1s10.1 4.5 10.1 10.1-4.5 10.1-10.1 10.1-10.1-4.5-10.1-10.1Zm91.9 165.6c0-5.6 4.5-10.1 10.1-10.1s10.1 4.5 10.1 10.1-4.5 10.1-10.1 10.1-10.1-4.5-10.1-10.1ZM70 227.5l-10.4-64.6h15.8l6.3 50h3.4l13.1-50H114l-19.1 64.6H70.1Zm58 0-9.2-64.6h15.1l9.2 64.6H128Zm18.9 0v-12.8l27.2-37.4v-1.8h-27.2v-12.4h46.6v13.3l-27.2 36.9v1.8h27.2v12.6h-46.6v-.2Zm-64 81.7c-5 0-9-.7-12.2-2-3.2-1.4-5.6-3.6-7.7-6.3-1.8-2.9-3.2-6.3-4.1-10.6-.9-4.3-1.4-9-1.6-14.6 0-5.6 0-10.6.5-14.6.5-4.3 1.6-7.9 3.4-10.6 1.8-2.9 4.1-5 7.2-6.5 3.2-1.4 7.2-2 12.2-2s4.5 0 6.8.2c2.3 0 4.3.5 6.3.9s3.6.7 5.2.9v7c-1.6-.2-3.2-.5-5.2-.7s-4.1-.5-6.1-.7c-2 0-4.1-.2-5.6-.2-3.6 0-6.3.5-8.6 1.6s-3.8 2.7-5 4.7c-1.1 2.3-1.8 5-2 8.1-.2 3.4-.5 7.2-.2 11.9 0 4.5.7 8.3 1.1 11.7s1.6 6.1 2.7 8.1c1.1 2.3 2.9 3.8 5.2 4.7 2.3 1.1 5.2 1.6 8.8 1.6s5.6 0 8.8-.5c3.2-.5 5.9-.7 7.9-1.1l.5 7c-1.6.2-3.4.7-5.4.9-2 .2-4.1.7-6.3.7s-4.5.2-6.5.2v.2Zm28.8-1.2-8.1-65.5h8.3l3.6 29h32l-3.6-29h8.3l8.1 65.5H152l-3.6-29.3h-32L120 308h-8.3Zm62.6 0-9.2-65.5h8.3l9.2 65.5h-8.3Zm22.5 0 6.1-58.1h-19.6l.9-7.4h47.5l-.9 7.4h-19.4l-6.1 58.1h-8.6Zm31.1 0 9.2-65.5h24.3c4.7 0 8.6.7 11.5 2 2.9 1.4 5.2 3.6 6.3 6.8s1.6 7 .9 11.7c-.7 4.7-2 8.8-4.5 11.9-2.3 3.2-5.6 5.4-9.7 7L274 308h-9l-7.9-24.5h-17.8l-3.4 24.5h-8.3.2Zm12.8-31.7h16.2c3.2 0 5.6-.7 7.7-1.8s3.6-2.9 5-5c1.1-2 2-4.5 2.3-7.2.7-4.3 0-7.4-1.6-9.5-1.8-2-4.7-3.2-9.2-3.2h-16.4l-3.8 26.6Zm39.2 31.7 17.6-65.5h17.3l16.7 65.5h-8.3l-3.6-16.2h-27l-4.5 16.2h-8.3.2Zm14.6-23.2h23.6l-9.5-35.1h-4.7l-9.5 35.1Z" />
</svg>