<svg width="1080" height="1350" viewBox="0 0 1080 1350" fill="none" xmlns="http://www.w3.org/2000/svg">
<g clip-path="url(#clip0_173_238)">
<rect width="1080" height="1350" fill="white"/>
<path d="M-1103.6 629.195C-1531.94 629.195 -1516.12 558.513 -1757.34 558.513L-1756.01 918.183L2878.09 959.498L2882.1 635.492C2641.75 635.492 2086.78 476.345 1890.62 476.345C1694.47 476.345 1574.01 601.55 1435.45 601.55C1296.89 601.55 1184.62 293.613 995.496 293.613C806.372 293.613 824.674 825.437 574.262 825.437C323.851 825.437 204.943 10.995 -181.691 10.9951C-568.325 10.9952 -675.249 629.195 -1103.6 629.195Z" fill="#F4B696"/>
<path d="M-1102.7 652.162C-1531.05 652.162 -1512.85 612.421 -1754.07 612.421L-1754.64 1205.21L2874.33 1165.99C2874.33 1165.99 3102.86 952.829 2870.46 952.829C2638.06 952.829 2281.72 567.181 2022.91 567.181C1764.1 567.181 1718.16 757.432 1569.05 757.432C1419.93 757.432 1262.84 556.177 1113.48 556.177C964.116 556.177 828.034 868.939 576.754 868.939C325.474 868.939 169.119 216.653 -217.516 216.653C-604.151 216.653 -674.355 652.162 -1102.7 652.162Z" fill="#FC915B"/>
<path d="M-535.764 1110.87C-795.141 1110.87 -922.068 860.471 -1163.29 860.471L-1181.9 1600.93L2903.08 1564.52L2897.67 1123.07C2507.38 1123.07 2262.99 814.944 1760.97 814.944C1258.95 814.944 1297.37 1147.29 928.458 1147.29C559.542 1147.29 321.857 723.891 62.48 723.891C-196.897 723.891 -276.386 1110.87 -535.764 1110.87Z" fill="#D46637"/>
</g>
<defs>
<clipPath id="clip0_173_238">
<rect width="1080" height="1350" fill="white"/>
</clipPath>
</defs>
</svg>
