<svg width="1080" height="1350" viewBox="0 0 1080 1350" fill="none" xmlns="http://www.w3.org/2000/svg">
<g clip-path="url(#clip0_173_232)">
<rect width="1080" height="1350" fill="white"/>
<path d="M-1066.23 1093.02C-1494.57 1093.02 -1478.75 977.969 -1719.97 977.969L-1720.54 1389.94H2923.32L2921.35 1083.82C2921.35 1083.82 2393.17 1008.34 2080.58 917.187C1767.99 826.037 1363.27 -33.5021 964.416 -41.6055C642.202 -30.5958 587.652 458.866 422.916 458.866C258.179 458.866 123.394 216.597 -116.162 216.597C-355.718 216.597 -637.877 1093.02 -1066.23 1093.02Z" fill="#C3D1F6"/>
<path d="M-1070.67 854.2C-1499.02 854.2 -1483.2 783.518 -1724.42 783.518L-1723.08 1143.19L2911.02 1184.5L2915.03 860.497C2674.67 860.497 2119.71 701.35 1923.55 701.35C1727.39 701.35 1606.93 826.555 1468.37 826.555C1329.81 826.555 1217.55 518.618 1028.42 518.618C839.297 518.618 857.599 1050.44 607.188 1050.44C356.777 1050.44 237.869 236 -148.765 236C-535.399 236 -642.323 854.2 -1070.67 854.2Z" fill="#9FBAFC"/>
<path d="M-1069.78 877.157C-1498.13 877.157 -1479.93 837.416 -1721.15 837.416L-1721.72 1430.2L2907.26 1390.99C2907.26 1390.99 3135.79 1177.82 2903.38 1177.82C2670.98 1177.82 2314.64 792.176 2055.84 792.176C1797.03 792.176 1751.08 982.428 1601.97 982.428C1452.86 982.428 1295.76 781.172 1146.4 781.172C997.042 781.172 860.96 1093.93 609.68 1093.93C358.4 1093.93 202.044 441.648 -184.59 441.648C-571.225 441.649 -641.429 877.157 -1069.78 877.157Z" fill="#778ECE"/>
<path d="M-502.839 1607.99C-762.216 1607.99 -889.143 1357.59 -1130.36 1357.59L-1148.98 2098.05L2936 2061.64L2930.6 1620.19C2540.31 1620.19 2295.92 1312.07 1793.9 1312.07C1291.88 1312.07 1330.3 1644.41 961.383 1644.41C592.467 1644.41 354.782 1221.01 95.4048 1221.01C-163.972 1221.01 -243.462 1607.99 -502.839 1607.99Z" fill="#778ECE"/>
</g>
<defs>
<clipPath id="clip0_173_232">
<rect width="1080" height="1350" fill="white"/>
</clipPath>
</defs>
</svg>
