<svg width="1080" height="1350" viewBox="0 0 1080 1350" fill="none" xmlns="http://www.w3.org/2000/svg">
<g clip-path="url(#clip0_173_225)">
<rect width="1080" height="1350" fill="white"/>
<path d="M187.111 274.285C-558.087 274.285 -530.563 74.1353 -950.215 74.1353L-951.197 790.837H7127.73L7124.31 258.292C7124.31 258.292 6205.42 126.967 5661.61 -31.6068C5117.8 -190.181 4413.7 -1685.52 3719.82 -1699.62C3159.27 -1680.47 3064.36 -828.95 2777.77 -828.95C2491.18 -828.95 2256.69 -1250.43 1839.94 -1250.43C1423.18 -1250.43 932.31 274.285 187.111 274.285Z" fill="#B4F2EB"/>
<path d="M179.375 332.221C-565.822 332.221 -538.298 209.256 -957.949 209.256L-955.627 834.974L7106.32 906.85L7113.31 343.176C6695.15 343.176 5729.68 66.3079 5388.43 66.3079C5047.17 66.3079 4837.61 284.127 4596.55 284.127C4355.5 284.127 4160.19 -251.592 3831.17 -251.592C3502.15 -251.592 3533.99 673.623 3098.35 673.623C2662.71 673.623 2455.84 -743.262 1783.22 -743.262C1110.59 -743.262 924.573 332.221 179.375 332.221Z" fill="#B4F2EB"/>
<path d="M180.928 372.168C-564.271 372.168 -532.61 303.031 -952.261 303.031L-953.256 1334.3L7099.78 1266.08C7099.78 1266.08 7497.36 895.24 7093.04 895.24C6688.73 895.24 6068.81 224.327 5618.56 224.327C5168.31 224.327 5088.38 555.308 4828.97 555.308C4569.56 555.308 4296.26 205.183 4036.42 205.183C3776.58 205.183 3539.84 749.297 3102.68 749.297C2665.53 749.297 2393.52 -385.487 1720.89 -385.486C1048.26 -385.486 926.126 372.168 180.928 372.168Z" fill="#88E0D8"/>
<path d="M1007.24 1170.18C555.997 1170.18 335.181 734.561 -84.4708 734.561L-116.854 2022.74L6989.79 1959.39L6980.39 1191.41C6301.4 1191.41 5876.24 655.357 5002.88 655.357C4129.51 655.357 4196.35 1233.54 3554.54 1233.54C2912.74 1233.54 2499.24 496.951 2048 496.951C1596.76 496.951 1458.47 1170.18 1007.24 1170.18Z" fill="#5AADA5"/>
<path d="M747.606 1754.41C426.114 1754.41 219.588 860.971 -147.688 860.971L-148.324 2088.56L7032.74 2114.84C7032.74 2114.84 7927.63 1754.41 7591.82 1754.41C7256.01 1754.41 6684.45 1124.65 6127.22 1124.65C5569.99 1124.65 5513.43 1909.9 4941.28 1909.9C4369.12 1909.9 4152.71 1319.02 3591.01 1319.02C3029.31 1319.02 2755.13 1085.78 1954.98 1085.78C1154.83 1085.78 1069.1 1754.41 747.606 1754.41Z" fill="#5AADA5"/>
</g>
<defs>
<clipPath id="clip0_173_225">
<rect width="1080" height="1350" fill="white"/>
</clipPath>
</defs>
</svg>
