<svg width="1080" height="1350" viewBox="0 0 1080 1350" fill="none" xmlns="http://www.w3.org/2000/svg">
<g clip-path="url(#clip0_173_243)">
<rect width="1080" height="1350" fill="white"/>
<path d="M-2844.27 429.622C-3272.62 429.622 -3256.8 314.573 -3498.02 314.573L-3498.59 726.541H1145.27L1143.31 420.428C1143.31 420.428 615.118 344.942 302.529 253.791C-10.0605 162.641 -414.78 -696.898 -813.632 -705.001C-1135.85 -693.992 -1190.4 -204.53 -1355.13 -204.53C-1519.87 -204.53 -1654.65 -446.799 -1894.21 -446.799C-2133.77 -446.799 -2415.93 429.622 -2844.27 429.622Z" fill="#F59EC2"/>
<path d="M-2848.72 462.917C-3277.06 462.917 -3261.24 392.235 -3502.46 392.235L-3501.13 751.905L1132.97 793.22L1136.98 469.214C896.626 469.214 341.661 310.067 145.504 310.067C-50.6526 310.067 -171.111 435.272 -309.672 435.272C-448.233 435.272 -560.5 127.335 -749.624 127.335C-938.748 127.335 -920.446 659.159 -1170.86 659.159C-1421.27 659.159 -1540.18 -155.283 -1926.81 -155.283C-2313.44 -155.283 -2420.37 462.917 -2848.72 462.917Z" fill="#F59EC2"/>
<path d="M-2847.82 485.878C-3276.17 485.878 -3257.97 446.137 -3499.19 446.137L-3499.76 1038.92L187.797 1332.99L1129.21 999.711C1129.21 999.711 1357.74 786.546 1125.34 786.546C892.936 786.546 536.599 400.897 277.79 400.897C18.981 400.897 -26.9626 591.149 -176.074 591.149C-325.186 591.149 -482.284 389.893 -631.643 389.893C-781.003 389.893 -917.085 702.656 -1168.36 702.656C-1419.65 702.656 -1576 50.3695 -1962.64 50.3696C-2349.27 50.3697 -2419.47 485.878 -2847.82 485.878Z" fill="#EF75A8"/>
<path d="M-2430.12 1150.34C-2614.92 1150.34 -2733.63 636.783 -2944.75 636.783L-2945.11 1342.41L1182.64 1357.52C1182.64 1357.52 1697.03 1150.34 1504 1150.34C1310.98 1150.34 982.439 788.35 662.137 788.35C341.835 788.35 309.326 1239.72 -19.5559 1239.72C-348.438 1239.72 -472.83 900.075 -795.702 900.075C-1118.57 900.075 -1276.18 766.004 -1736.11 766.004C-2196.05 766.004 -2245.33 1150.34 -2430.12 1150.34Z" fill="#C94B7F"/>
</g>
<defs>
<clipPath id="clip0_173_243">
<rect width="1080" height="1350" fill="white"/>
</clipPath>
</defs>
</svg>
